<svg width="245" height="245" viewBox="0 0 245 245" fill="none" xmlns="http://www.w3.org/2000/svg">
<path style="mix-blend-mode:soft-light" d="M217.521 0H27.1206C12.1423 0 0 12.1503 0 27.1385V217.665C0 232.653 12.1423 244.803 27.1206 244.803H217.521C232.499 244.803 244.641 232.653 244.641 217.665V27.1385C244.641 12.1503 232.499 0 217.521 0Z" fill="url(#paint0_radial_381_1563)"/>
<path d="M134.749 110.929L157.516 133.712V150.537H145.841V139.166L126.436 119.749L134.749 110.929Z" fill="#BFBFBF"/>
<path d="M199.933 149.357H145.841V244.817H199.933V149.357Z" fill="#E0E0E0"/>
<path d="M145.827 149.357H49.2781V244.817H145.827V149.357Z" fill="white"/>
<path d="M137.691 159.927H56.8447V237.245H137.691V159.927Z" fill="#008CDA"/>
<path d="M138.288 164.093H56.2617V168.259H138.288V164.093Z" fill="white"/>
<path d="M138.288 176.753H56.2617V180.919H138.288V176.753Z" fill="white"/>
<path d="M138.288 189.413H56.2617V193.579H138.288V189.413Z" fill="white"/>
<path d="M138.288 202.074H56.2617V206.253H138.288V202.074Z" fill="white"/>
<path d="M138.288 214.734H56.2617V218.899H138.288V214.734Z" fill="white"/>
<path d="M138.288 227.394H56.2617V231.56H138.288V227.394Z" fill="white"/>
<path d="M202.265 143.047H46.9594V149.357H202.265V143.047Z" fill="#BFBFBF"/>
<path d="M120.768 111.838L113.866 113.615L112.686 115.624L121.053 124.688L128.186 123.073L120.768 111.838Z" fill="#1D1D1B"/>
<path d="M128.891 108.581L134.749 117.008L128.186 123.073L119.819 114.023L126.043 106.356L128.891 108.581Z" fill="#3C3C3B"/>
<path d="M136.918 110.033L128.565 100.969L125.311 102.733L126.396 107.944L134.749 117.008L136.918 110.033Z" fill="#706F6F"/>
<path d="M126.396 107.944L128.565 100.969L125.067 97.1695L117.934 98.7707L111.357 104.836L109.188 111.824L112.686 115.624L119.819 114.023L126.396 107.944Z" fill="#575756"/>
<path d="M124.904 112.91L132.918 102.828L136.118 92.556L133.637 84.8486L126.151 81.7548L115.656 84.1295L104.984 91.3076L96.9697 101.39L93.7695 111.662L96.251 119.382L103.736 122.476L114.232 120.102L124.904 112.91Z" fill="#C6C6C6"/>
<path d="M122.368 105.23L124.904 112.91L114.232 120.102L97.3494 124.172L114.53 107.916L122.368 105.23Z" fill="#B2B2B2"/>
<path d="M138.329 86.3141L132.918 102.828L124.904 112.91L120.755 108.418L132.267 91.3212L138.329 86.3141Z" fill="#DADADA"/>
<path d="M139.969 65.7974L145.339 63.7756L139.902 46.8682L137.935 44.7379L135.088 50.4777L139.969 65.7974Z" fill="#EDEDED"/>
<path d="M55.9635 120.468L57.9297 122.598L74.3377 129.369L75.2191 124.335L55.9635 120.468Z" fill="#B2B2B2"/>
<path d="M97.2546 121.703L97.3495 124.172L74.3377 129.369L72.385 127.225L95.9392 119.966L97.2546 121.703Z" fill="#C6C6C6"/>
<path d="M119.887 104.158L120.754 108.418L97.3494 124.172L95.3696 122.042L118.449 104.714L119.887 104.158Z" fill="#DADADA"/>
<path d="M137.691 82.8675L138.329 86.3141L120.755 108.418L118.802 106.288L135.739 81.4292L137.691 82.8675Z" fill="#EDEDED"/>
<path d="M143.373 61.6452L145.339 63.7756L138.329 86.3141L136.362 84.1837L134.261 68.3077L143.373 61.6452Z" fill="#F6F6F6"/>
<path d="M118.802 106.288L136.362 84.1837L143.373 61.6452L137.935 44.7379L121.527 37.9668L98.5292 43.1638L75.097 58.9178L57.5364 81.0221L50.5258 103.561L55.9634 120.468L72.385 127.225L95.3697 122.042L118.802 106.288Z" fill="white"/>
<path d="M115.778 103.004L128.606 86.8569L133.732 70.4109L129.759 58.0358L117.771 53.0965L100.97 56.8959L83.8569 68.4027L71.0289 84.5637L65.9031 101.01L69.8627 113.371L81.8771 118.324L98.6648 114.525L115.778 103.004Z" fill="#F6F6F6"/>
<path d="M112.957 99.9648L120.985 89.8828L124.172 79.5973L121.69 71.89L114.205 68.8098L103.723 71.1708L93.0372 78.349L85.0231 88.4445L81.8364 98.7164L84.3044 106.424L91.7897 109.518L102.285 107.143L112.957 99.9648Z" fill="#EDEDED"/>
<path d="M108.306 90.2492L109.825 85.3235L107.37 82.6504L102.34 83.7902L97.702 88.0645L96.1697 92.9902L98.6377 95.6769L103.669 94.5371L108.306 90.2492Z" fill="#C6C6C6"/>
<path d="M84.3452 74.4003L84.8739 72.6906L86.0402 72.4192L85.5385 77.1277L84.6977 92.2574L84.3722 94.1436L83.2061 94.415L84.3452 74.4003Z" fill="#706F6F"/>
<path d="M85.5113 74.1289L86.0402 72.4192L84.9011 92.4339L84.3722 94.1436L85.5113 74.1289Z" fill="#B2B2B2"/>
<path d="M89.7421 69.1083L88.0064 69.5018L87.6809 70.8994L94.8001 70.8723L107.072 71.3608L109.31 71.2115L109.635 69.8003L89.7421 69.1083Z" fill="#B2B2B2"/>
<path d="M89.4302 70.5059L87.6809 70.8994L107.56 71.5914L109.31 71.2115L89.4302 70.5059Z" fill="#706F6F"/>
<path d="M89.7556 73.1655L90.2845 71.4693L91.4507 71.198L92.8203 72.6634L120.212 83.5731L122.341 85.5678L121.175 85.8392L89.7556 73.1655Z" fill="#706F6F"/>
<path d="M90.9218 72.9077L91.4506 71.198L122.87 83.8581L122.341 85.5678L90.9218 72.9077Z" fill="#B2B2B2"/>
<path d="M88.1284 74.6717L86.3927 75.0652L85.9452 76.49L89.4031 84.8215L96.3866 107.143L97.7019 108.174L98.1495 106.749L88.1284 74.6717Z" fill="#B2B2B2"/>
<path d="M87.6944 76.0965L85.9452 76.49L95.9527 108.568L97.7019 108.174L87.6944 76.0965Z" fill="#706F6F"/>
<path d="M87.3418 73.5997L84.467 74.346L83.9789 75.1873L85.3213 76.6257L88.291 75.9608L87.3418 73.5997Z" fill="#706F6F"/>
<path d="M90.7319 72.2428L91.0303 73.4369L88.2911 75.9608L86.9486 74.5089L89.5386 71.3201L90.7319 72.2428Z" fill="#878787"/>
<path d="M91.9253 70.5195L90.5828 69.0812L89.2404 69.8139L89.6879 71.985L91.0303 73.4369L91.9253 70.5195Z" fill="#B2B2B2"/>
<path d="M89.6878 71.985L90.5828 69.0811L89.1318 67.4935L86.1621 68.1584L83.423 70.6959L82.528 73.5997L83.9789 75.1873L86.9486 74.5089L89.6878 71.985Z" fill="#9D9D9C"/>
<path d="M77.9176 62.8121L76.209 63.2599L75.9242 63.7484L85.0232 73.6268L86.7996 73.2197L77.9176 62.8121Z" fill="#706F6F"/>
<path d="M79.9381 62.0116L88.4133 71.7272L86.7996 73.2198L77.687 63.3549L79.2193 61.4552L79.9381 62.0116Z" fill="#878787"/>
<path d="M88.9555 69.9903L79.8431 60.1254L79.043 60.5596L79.3142 61.8623L88.4132 71.7271L88.9555 69.9903Z" fill="#B2B2B2"/>
<path d="M79.3142 61.8623L79.8431 60.1254L78.9888 59.1891L77.226 59.5826L75.5851 61.0753L75.0563 62.8257L75.9242 63.7484L77.687 63.3549L79.3142 61.8623Z" fill="#9D9D9C"/>
<path d="M74.5952 60.9396L69.2117 62.3101L68.3032 63.8841L70.7984 66.5844L76.3445 65.3224L74.5952 60.9396Z" fill="#706F6F"/>
<path d="M80.9008 58.4021L81.4432 60.6139L76.3445 65.3224L73.8495 62.6222L78.677 56.6788L80.9008 58.4021Z" fill="#878787"/>
<path d="M83.1382 55.1726L80.643 52.4859L78.1208 53.8564L78.9616 57.9136L81.4431 60.6139L83.1382 55.1726Z" fill="#B2B2B2"/>
<path d="M78.9616 57.9136L80.6431 52.4859L77.9175 49.5278L72.3849 50.7762L67.2727 55.4983L65.5912 60.926L68.3032 63.8841L73.8494 62.6222L78.9616 57.9136Z" fill="#9D9D9C"/>
<path d="M53.509 55.2676C53.509 55.2676 52.4377 48.6865 58.9738 42.4582C65.5098 36.2299 72.3306 37.3562 72.3306 37.3562" stroke="#FFDC00" stroke-width="2" stroke-miterlimit="10" stroke-linecap="round"/>
<path d="M44.532 53.8429C44.532 53.8429 43.0133 44.5615 52.2343 35.7957C61.4553 27.03 71.056 28.604 71.056 28.604" stroke="#FFDC00" stroke-width="2" stroke-miterlimit="10" stroke-linecap="round"/>
<path d="M35.8127 51.4547C35.8127 51.4547 33.9414 40.0022 45.305 29.1875C56.6685 18.3728 68.5202 20.3132 68.5202 20.3132" stroke="#FFDC00" stroke-width="2" stroke-miterlimit="10" stroke-linecap="round"/>
<defs>
<radialGradient id="paint0_radial_381_1563" cx="0" cy="0" r="1" gradientUnits="userSpaceOnUse" gradientTransform="translate(122.327 122.408) scale(122.327 122.408)">
<stop stop-color="#2B017F" stop-opacity="0"/>
<stop offset="0.96" stop-color="#03000B" stop-opacity="0.91"/>
<stop offset="1"/>
</radialGradient>
</defs>
</svg>
