<svg width="245" height="245" viewBox="0 0 245 245" fill="none" xmlns="http://www.w3.org/2000/svg">
<path style="mix-blend-mode:soft-light" d="M217.521 0H27.1206C12.1423 0 0 12.1503 0 27.1385V217.665C0 232.653 12.1423 244.803 27.1206 244.803H217.521C232.499 244.803 244.641 232.653 244.641 217.665V27.1385C244.641 12.1503 232.499 0 217.521 0Z" fill="url(#paint0_radial_381_1021)"/>
<path d="M104.645 110.929L81.8771 133.712V150.537H93.5525V139.166L112.957 119.749L104.645 110.929Z" fill="#BFBFBF"/>
<path d="M93.5525 149.357H39.4605V244.817H93.5525V149.357Z" fill="#E0E0E0"/>
<path d="M190.102 149.357H93.5525V244.817H190.102V149.357Z" fill="white"/>
<path d="M182.549 159.927H101.702V237.245H182.549V159.927Z" fill="#008CDA"/>
<path d="M183.145 164.093H101.119V168.259H183.145V164.093Z" fill="white"/>
<path d="M183.145 176.753H101.119V180.919H183.145V176.753Z" fill="white"/>
<path d="M183.145 189.413H101.119V193.579H183.145V189.413Z" fill="white"/>
<path d="M183.145 202.074H101.119V206.253H183.145V202.074Z" fill="white"/>
<path d="M183.145 214.734H101.119V218.899H183.145V214.734Z" fill="white"/>
<path d="M183.145 227.394H101.119V231.56H183.145V227.394Z" fill="white"/>
<path d="M192.448 143.047H37.1417V149.357H192.448V143.047Z" fill="#BFBFBF"/>
<path d="M118.626 111.838L125.528 113.616L126.707 115.637L118.341 124.688L111.208 123.087L118.626 111.838Z" fill="#1D1D1B"/>
<path d="M110.503 108.581L104.645 117.008L111.208 123.087L119.575 114.023L113.364 106.37L110.503 108.581Z" fill="#3C3C3B"/>
<path d="M102.475 110.033L110.828 100.969L114.083 102.733L112.998 107.944L104.645 117.008L102.475 110.033Z" fill="#706F6F"/>
<path d="M112.998 107.944L110.828 100.969L114.327 97.1696L121.46 98.7707L128.036 104.85L130.206 111.824L126.707 115.637L119.575 114.023L112.998 107.944Z" fill="#575756"/>
<path d="M114.49 112.91L106.475 102.828L103.275 92.556L105.757 84.8486L113.242 81.7548L123.738 84.1294L134.423 91.3212L142.424 101.39L145.624 111.675L143.143 119.382L135.657 122.476L125.162 120.115L114.49 112.91Z" fill="#C6C6C6"/>
<path d="M117.025 105.23L114.49 112.91L125.162 120.115L142.058 124.172L124.877 107.916L117.025 105.23Z" fill="#B2B2B2"/>
<path d="M101.065 86.3141L106.475 102.828L114.49 112.91L118.639 108.418L107.126 91.3347L101.065 86.3141Z" fill="#DADADA"/>
<path d="M99.4241 65.7974L94.0542 63.7891L99.5055 46.8682L101.458 44.7379L104.306 50.4776L99.4241 65.7974Z" fill="#EDEDED"/>
<path d="M183.43 120.468L181.464 122.612L165.056 129.369L164.175 124.335L183.43 120.468Z" fill="#B2B2B2"/>
<path d="M142.139 121.703L142.058 124.172L165.056 129.369L167.009 127.225L143.454 119.966L142.139 121.703Z" fill="#C6C6C6"/>
<path d="M119.507 104.158L118.639 108.418L142.058 124.172L144.024 122.042L120.944 104.714L119.507 104.158Z" fill="#DADADA"/>
<path d="M101.702 82.8675L101.065 86.3141L118.639 108.418L120.592 106.288L103.655 81.4291L101.702 82.8675Z" fill="#EDEDED"/>
<path d="M96.0205 61.6452L94.0542 63.7891L101.065 86.3141L103.031 84.1837L105.133 68.3077L96.0205 61.6452Z" fill="#F6F6F6"/>
<path d="M120.592 106.288L103.031 84.1837L96.0205 61.6452L101.458 44.7379L117.866 37.9668L140.864 43.1638L164.297 58.9313L181.857 81.0221L188.868 103.561L183.43 120.468L167.009 127.225L144.024 122.042L120.592 106.288Z" fill="white"/>
<path d="M123.616 103.018L110.788 86.8569L105.662 70.4109L109.635 58.0493L121.622 53.1101L138.424 56.8959L155.537 68.4027L168.365 84.5637L173.49 101.01L169.531 113.371L157.53 118.324L140.729 114.525L123.616 103.018Z" fill="#F6F6F6"/>
<path d="M126.436 99.9648L118.422 89.8828L115.222 79.6109L117.703 71.89L125.189 68.8098L135.671 71.1708L146.356 78.3625L154.37 88.4445L157.571 98.7164L155.089 106.437L147.604 109.518L137.108 107.156L126.436 99.9648Z" fill="#EDEDED"/>
<path d="M131.087 90.2492L129.569 85.3371L132.037 82.6504L137.054 83.7902L141.692 88.0646L143.224 92.9902L140.756 95.6769L135.725 94.5371L131.087 90.2492Z" fill="#C6C6C6"/>
<path d="M155.048 74.4003L154.52 72.6906L153.353 72.4327L153.855 77.1413L154.696 92.2575L155.021 94.1436L156.188 94.415L155.048 74.4003Z" fill="#706F6F"/>
<path d="M153.882 74.1289L153.353 72.4327L154.492 92.4339L155.021 94.1436L153.882 74.1289Z" fill="#B2B2B2"/>
<path d="M149.651 69.1083L151.387 69.5018L151.713 70.8994L144.593 70.8723L132.321 71.3607L130.084 71.2115L129.759 69.8139L149.651 69.1083Z" fill="#B2B2B2"/>
<path d="M149.963 70.5059L151.713 70.8994L131.833 71.605L130.084 71.2115L149.963 70.5059Z" fill="#706F6F"/>
<path d="M149.638 73.1791L149.109 71.4693L147.943 71.1979L146.573 72.6634L119.181 83.5731L117.052 85.5814L118.219 85.8392L149.638 73.1791Z" fill="#706F6F"/>
<path d="M148.472 72.9077L147.943 71.1979L116.524 83.8581L117.053 85.5814L148.472 72.9077Z" fill="#B2B2B2"/>
<path d="M151.265 74.6717L153.001 75.0652L153.448 76.49L149.99 84.8215L143.007 107.143L141.692 108.174L141.258 106.749L151.265 74.6717Z" fill="#B2B2B2"/>
<path d="M151.699 76.0965L153.448 76.49L143.441 108.568L141.692 108.174L151.699 76.0965Z" fill="#706F6F"/>
<path d="M152.052 73.5997L154.926 74.346L155.415 75.1873L154.072 76.6257L151.102 75.9608L152.052 73.5997Z" fill="#706F6F"/>
<path d="M148.662 72.2563L148.363 73.4369L151.102 75.9607L152.445 74.5224L149.855 71.32L148.662 72.2563Z" fill="#878787"/>
<path d="M147.468 70.5195L148.811 69.0811L150.153 69.8139L149.719 71.985L148.363 73.4369L147.468 70.5195Z" fill="#B2B2B2"/>
<path d="M149.719 71.985L148.811 69.0811L150.262 67.4935L153.231 68.172L155.971 70.6959L156.866 73.5997L155.415 75.1873L152.445 74.5224L149.719 71.985Z" fill="#9D9D9C"/>
<path d="M161.476 62.8257L163.185 63.2599L163.469 63.762L154.37 73.6268L152.594 73.2197L161.476 62.8257Z" fill="#706F6F"/>
<path d="M159.469 62.0115L150.98 71.7271L152.594 73.2197L161.707 63.3549L160.174 61.4688L159.469 62.0115Z" fill="#878787"/>
<path d="M150.438 70.0038L159.55 60.1254L160.351 60.5596L160.079 61.8622L150.98 71.7271L150.438 70.0038Z" fill="#B2B2B2"/>
<path d="M160.079 61.8623L159.55 60.1254L160.405 59.1891L162.168 59.5826L163.808 61.0888L164.337 62.8257L163.469 63.762L161.707 63.3549L160.079 61.8623Z" fill="#9D9D9C"/>
<path d="M164.798 60.9396L170.182 62.3101L171.09 63.8841L168.595 66.5844L163.049 65.336L164.798 60.9396Z" fill="#706F6F"/>
<path d="M158.493 58.4157L157.95 60.6139L163.049 65.3361L165.544 62.6357L160.717 56.6788L158.493 58.4157Z" fill="#878787"/>
<path d="M156.255 55.1862L158.75 52.4859L161.273 53.87L160.432 57.9136L157.95 60.6139L156.255 55.1862Z" fill="#B2B2B2"/>
<path d="M160.432 57.9137L158.75 52.4859L161.476 49.5278L167.009 50.7762L172.121 55.5119L173.802 60.926L171.09 63.8841L165.544 62.6357L160.432 57.9137Z" fill="#9D9D9C"/>
<path d="M185.885 55.2676C185.885 55.2676 186.956 48.6865 180.42 42.4582C173.884 36.2299 167.063 37.3562 167.063 37.3562" stroke="#FFDC00" stroke-width="2" stroke-miterlimit="10" stroke-linecap="round"/>
<path d="M194.861 53.8428C194.861 53.8428 196.38 44.5614 187.159 35.7957C177.938 27.0299 168.338 28.604 168.338 28.604" stroke="#FFDC00" stroke-width="2" stroke-miterlimit="10" stroke-linecap="round"/>
<path d="M203.581 51.4546C203.581 51.4546 205.452 40.0022 194.089 29.1875C182.725 18.3728 170.873 20.3132 170.873 20.3132" stroke="#FFDC00" stroke-width="2" stroke-miterlimit="10" stroke-linecap="round"/>
<defs>
<radialGradient id="paint0_radial_381_1021" cx="0" cy="0" r="1" gradientUnits="userSpaceOnUse" gradientTransform="translate(122.327 122.408) scale(122.327 122.408)">
<stop stop-color="#2B017F" stop-opacity="0"/>
<stop offset="0.96" stop-color="#03000B" stop-opacity="0.91"/>
<stop offset="1"/>
</radialGradient>
</defs>
</svg>
