<svg width="245" height="245" viewBox="0 0 245 245" fill="none" xmlns="http://www.w3.org/2000/svg">
<path style="mix-blend-mode:soft-light" d="M217.521 0H27.1206C12.1423 0 0 12.1503 0 27.1385V217.665C0 232.653 12.1423 244.803 27.1206 244.803H217.521C232.499 244.803 244.641 232.653 244.641 217.665V27.1385C244.641 12.1503 232.499 0 217.521 0Z" fill="url(#paint0_radial_381_1208)"/>
<path d="M139.251 40.7757L138.695 40.6128L115.669 42.0783L100.997 29.5946L100.441 29.4317L80.3448 75.8658L81.3212 94.8899L120.144 106.234L130.532 95.6905L139.251 40.7757Z" fill="white"/>
<path d="M132.538 61.6859L138.695 40.6128L100.997 29.5946L94.8408 50.6676L101.838 53.2594L127.291 60.4375L132.538 61.6859Z" fill="#008CDA"/>
<path d="M132.294 62.5001L132.538 61.6859L94.8408 50.6676L94.6102 51.4818L132.294 62.5001Z" fill="white"/>
<path d="M126.179 83.4646L132.335 62.3915L94.6374 51.3732L88.481 72.4463L95.4781 75.038L120.931 82.2162L126.179 83.4646Z" fill="#008CDA"/>
<path d="M88.4368 72.3973L88.1962 73.2176L125.877 84.2863L126.117 83.4661L88.4368 72.3973Z" fill="white"/>
<path d="M119.819 105.243L125.962 84.1838L88.2776 73.1519L82.1077 94.225L89.1184 96.8303L114.571 103.995L119.819 105.243Z" fill="#008CDA"/>
<path d="M119.575 106.071L119.819 105.243L82.1076 94.225L81.8771 95.0391L119.575 106.071Z" fill="white"/>
<path d="M155.659 68.457L161.815 47.3839L139.251 40.7757L133.094 61.8487L140.091 64.4405L150.411 67.2086L155.659 68.457Z" fill="#008CDA"/>
<path d="M155.428 69.2847L155.659 68.4569L133.094 61.8487L132.85 62.6629L155.428 69.2847Z" fill="white"/>
<path d="M149.312 90.2356L155.455 69.1626L132.877 62.5543L126.735 83.6274L133.732 86.2191L144.051 88.9873L149.312 90.2356Z" fill="#008CDA"/>
<path d="M149.068 91.0634L149.312 90.2356L126.735 83.6274L126.49 84.4551L149.068 91.0634Z" fill="white"/>
<path d="M142.939 112.028L149.096 90.9412L126.531 84.3466L120.375 105.406L127.372 107.998L137.691 110.766L142.939 112.028Z" fill="#008CDA"/>
<path d="M142.695 112.842L142.939 112.028L120.375 105.406L120.144 106.234L142.695 112.842Z" fill="white"/>
<path d="M94.2848 50.5048L100.441 29.4317L77.8633 22.8235L71.7205 43.8966L78.704 46.4883L89.037 49.2564L94.2848 50.5048Z" fill="#008CDA"/>
<path d="M94.0407 51.3325L94.2848 50.5048L71.7205 43.8966L71.4764 44.7107L94.0407 51.3325Z" fill="white"/>
<path d="M87.9114 72.2835L94.0814 51.2104L71.517 44.6022L65.3471 65.6753L72.3442 68.267L82.6772 71.0351L87.9114 72.2835Z" fill="#008CDA"/>
<path d="M65.2877 65.774L65.0551 66.5965L87.6803 73.0031L87.9129 72.1805L65.2877 65.774Z" fill="white"/>
<path d="M81.5652 94.0757L87.708 72.9891L65.1437 66.3808L59.0009 87.4539L65.998 90.0457L76.3174 92.8138L81.5652 94.0757Z" fill="#008CDA"/>
<path d="M59.0437 87.4393L58.8011 88.259L81.3464 94.9416L81.589 94.1219L59.0437 87.4393Z" fill="white"/>
<path d="M101.065 106.505L102.882 100.29L99.058 99.1778L97.241 105.393L98.9767 106.424L101.065 106.505Z" fill="#C6C6C6"/>
<path d="M97.2087 105.383L96.9742 106.205L100.808 107.3L101.042 106.478L97.2087 105.383Z" fill="#9D9D9C"/>
<path d="M86.0537 152.844L116.225 145.49L93.8508 122.069L63.6927 129.437L86.0537 152.844Z" fill="#9D9D9C"/>
<path d="M100.916 110.712L93.8508 122.069L63.6927 129.437L72.7646 98.3365L102.936 90.9684L100.916 110.712Z" fill="#DADADA"/>
<path d="M116.225 145.49L125.297 114.389L102.936 90.9684L93.8508 122.069L116.225 145.49Z" fill="#C6C6C6"/>
<path d="M75.1648 99.9105L97.4443 94.4693L90.2167 119.192L67.9507 124.634L75.1648 99.9105Z" fill="#574943"/>
<path d="M90.732 118.799L90.2167 119.192L67.9507 124.634L68.5609 125.285L90.8269 119.844L90.732 118.799Z" fill="#0A0808"/>
<path d="M97.4444 94.4693L98.041 95.1206L90.827 119.844L90.2167 119.192L97.4444 94.4693Z" fill="#362C29"/>
<path d="M67.7066 125.217L68.4524 126.004L68.1405 127.063L67.6659 126.94L67.0557 126.33L67.7066 125.217Z" fill="#362C29"/>
<path d="M66.5404 127.673L67.1235 128.04L68.1406 127.063L67.4083 126.303L67.0286 126.33L66.2692 127.13L66.5404 127.673Z" fill="#211A1A"/>
<path d="M65.2793 127.538L66.0387 128.325L67.1235 128.04L66.3913 127.266L65.4692 126.981L65.2793 127.538Z" fill="#0A0808"/>
<path d="M66.3912 127.266L65.2793 127.538L64.7369 126.954L65.0624 125.869L66.0658 124.892L67.1506 124.634L67.7066 125.217L67.4083 126.303L66.3912 127.266Z" fill="#574943"/>
<path d="M55.5295 113.249L67.2185 125.489L67.0015 126.221L66.6896 126.14L55.082 113.995L55.5295 113.249Z" fill="#362C29"/>
<path d="M53.8886 114.81L65.5912 127.063L66.3234 126.873L61.062 120.739L54.6345 114.633L54.2005 114.511L53.8886 114.81Z" fill="#0A0808"/>
<path d="M66.3235 126.873L67.0015 126.221L55.3125 113.982H55.0684L54.5396 114.538L66.3235 126.873Z" fill="#211A1A"/>
<path d="M53.7259 113.67L54.4039 113.032L55.1633 112.869L55.5295 113.249L55.3125 113.982L54.6345 114.633L53.8886 114.81L53.5225 114.43L53.7259 113.67Z" fill="#574943"/>
<path d="M24.6662 81.4156L55.1905 113.358L55.0277 113.9L54.8107 113.819L24.3543 81.9448L24.6662 81.4156Z" fill="#362C29"/>
<path d="M54.2548 114.158L54.5666 114.348L55.0277 113.9L24.5035 81.9448L24.3272 81.9313L23.9746 82.3248L54.2548 114.158Z" fill="#211A1A"/>
<path d="M23.4865 82.5283L54.0242 114.484L54.5666 114.348L24.0289 82.3926L23.5678 82.2433L23.4865 82.5283Z" fill="#0A0808"/>
<path d="M23.378 81.7141L23.8526 81.2528L24.4086 81.1307L24.6662 81.4156L24.5035 81.9448L24.0289 82.3926L23.4865 82.5283L23.2288 82.2569L23.378 81.7141Z" fill="#574943"/>
<path d="M21.8456 77.8605L26.2121 82.4333L25.968 83.2203L25.6154 83.1118L21.3575 78.6746L21.8456 77.8605Z" fill="#362C29"/>
<path d="M24.7883 83.6274L25.2493 83.9124L25.968 83.2203L21.6016 78.6611H21.3304L20.788 79.2581L24.7883 83.6274Z" fill="#211A1A"/>
<path d="M20.0828 79.543L24.4492 84.1159L25.2493 83.9123L20.8829 79.3531L20.2049 79.1495L20.0828 79.543Z" fill="#0A0808"/>
<path d="M19.9065 78.3354L20.6388 77.6433L21.4389 77.4398L21.8457 77.8605L21.6016 78.661L20.8829 79.3531L20.0828 79.543L19.6896 79.1224L19.9065 78.3354Z" fill="#574943"/>
<path d="M91.7491 138.434L91.9931 137.606L88.1691 136.493L87.925 137.307L91.7491 138.434Z" fill="#C6C6C6"/>
<path d="M89.932 144.635L91.9931 137.606L88.1691 136.493L86.108 143.522L89.932 144.635Z" fill="#C6C6C6"/>
<path d="M107.669 148.936L107.113 148.773L84.101 150.225L69.4152 137.755L68.8593 137.579L48.7629 184.013L49.7392 203.051L88.5488 214.381L98.9496 203.851L107.669 148.936Z" fill="white"/>
<path d="M100.957 169.847L107.113 148.773L69.4152 137.755L63.2589 158.815L70.256 161.42L95.7086 168.585L100.957 169.847Z" fill="#008CDA"/>
<path d="M100.726 170.674L100.956 169.847L63.2588 158.815L63.0283 159.642L100.726 170.674Z" fill="white"/>
<path d="M94.5967 191.625L100.753 170.552L63.0554 159.534L56.9126 180.607L63.8961 183.199L89.3488 190.377L94.5967 191.625Z" fill="#008CDA"/>
<path d="M94.3526 192.439L94.5967 191.625L56.9126 180.607L56.6685 181.421L94.3526 192.439Z" fill="white"/>
<path d="M88.2369 213.404L94.3932 192.331L56.6956 181.313L50.5392 202.386L57.5364 204.977L82.9891 212.156L88.2369 213.404Z" fill="#008CDA"/>
<path d="M87.9928 214.218L88.2369 213.404L50.5393 202.386L50.3088 203.2L87.9928 214.218Z" fill="white"/>
<path d="M124.077 176.604L130.233 155.545L107.669 148.936L101.512 170.009L108.51 172.588L118.829 175.369L124.077 176.604Z" fill="#008CDA"/>
<path d="M101.433 170.083L101.201 170.905L123.831 177.296L124.063 176.473L101.433 170.083Z" fill="white"/>
<path d="M117.717 198.396L123.873 177.323L101.309 170.715L95.1526 191.788L102.15 194.38L112.483 197.148L117.717 198.396Z" fill="#008CDA"/>
<path d="M117.486 199.21L117.717 198.396L95.1526 191.788L94.9221 192.602L117.486 199.21Z" fill="white"/>
<path d="M111.371 220.175L117.514 199.102L94.9493 192.494L88.7929 213.567L95.79 216.158L106.109 218.927L111.371 220.175Z" fill="#008CDA"/>
<path d="M88.7642 213.559L88.5249 214.379L111.097 220.971L111.336 220.151L88.7642 213.559Z" fill="white"/>
<path d="M62.7028 158.665L68.8592 137.579L46.2949 130.984L40.1249 152.057L47.1356 154.635L57.455 157.404L62.7028 158.665Z" fill="#008CDA"/>
<path d="M62.4588 159.48L62.7028 158.665L40.125 152.057L39.8944 152.871L62.4588 159.48Z" fill="white"/>
<path d="M56.3431 180.444L62.4995 159.371L39.9351 152.749L33.7787 173.836L40.7759 176.428L51.1088 179.196L56.3431 180.444Z" fill="#008CDA"/>
<path d="M33.7631 173.788L33.52 174.608L56.0618 181.302L56.3049 180.483L33.7631 173.788Z" fill="white"/>
<path d="M49.9833 202.223L56.1397 181.15L33.5753 174.542L27.4189 195.615L34.4025 198.206L44.7354 200.974L49.9833 202.223Z" fill="#008CDA"/>
<path d="M49.7392 203.051L49.9833 202.223L27.4189 195.615L27.1749 196.442L49.7392 203.051Z" fill="white"/>
<path d="M119.832 119.002L126.463 126.371L126.274 129.6L109.649 133.657L102.638 126.316L119.832 119.002Z" fill="#1D1D1B"/>
<path d="M112.944 109.002L99.6954 114.24L102.638 126.316L119.263 122.273L117.948 108.622L112.944 109.002Z" fill="#3C3C3B"/>
<path d="M102.529 104.51L119.168 100.44L121.568 104.972L116.32 110.182L99.6954 114.24L102.529 104.51Z" fill="#706F6F"/>
<path d="M116.32 110.182L119.168 100.44L126.124 98.73L133.149 106.071L136.091 118.148L133.244 127.904L126.274 129.6L119.263 122.273L116.32 110.182Z" fill="#575756"/>
<path d="M114.232 117.076L112.686 99.2456L116.876 84.9029L125.663 77.8876L136.701 80.0587L147.021 90.8734L153.855 107.401L155.388 125.204L151.211 139.56L142.41 146.575L131.386 144.404L121.053 133.603L114.232 117.076Z" fill="#C6C6C6"/>
<path d="M123.06 110.128L114.232 117.076L121.053 133.603L137.474 151.284L130.07 119.26L123.06 110.128Z" fill="#B2B2B2"/>
<path d="M119.114 75.9879L112.686 99.2456L114.232 117.076L122.477 115.054L122.273 86.4362L119.114 75.9879Z" fill="#DADADA"/>
<path d="M132.959 50.9797L128.294 44.5208L147.577 29.1332L151.469 28.1698L150.357 37.0169L132.959 50.9797Z" fill="#EDEDED"/>
<path d="M188.19 178.802L184.285 179.766L160.107 174.976L162.954 168.476L188.19 178.802Z" fill="#B2B2B2"/>
<path d="M139.481 148.502L137.474 151.284L160.107 174.976L164.012 173.999L142.342 147.498L139.481 148.502Z" fill="#C6C6C6"/>
<path d="M126.748 110.807L122.477 115.054L137.474 151.284L141.38 150.334L127.996 112.557L126.748 110.807Z" fill="#DADADA"/>
<path d="M122.477 72.487L119.114 75.9879L122.477 115.054L126.368 114.09L125.853 72.3242L122.477 72.487Z" fill="#EDEDED"/>
<path d="M132.199 43.5573L128.294 44.5207L119.114 75.9879L123.019 75.0245L137.637 58.28L132.199 43.5573Z" fill="#F6F6F6"/>
<path d="M126.368 114.09L123.019 75.0245L132.199 43.5573L151.469 28.1698L175.647 32.9597L198.279 56.6381L213.29 92.8816L216.653 131.948L207.459 163.415L188.19 178.802L164.012 173.999L141.38 150.334L126.368 114.09Z" fill="white"/>
<path d="M132.389 112.625L129.935 84.0752L136.634 61.116L150.723 49.8535L168.378 53.3543L184.908 70.6552L195.879 97.1152L198.319 125.679L191.621 148.651L177.545 159.9L159.876 156.399L143.346 139.099L132.389 112.625Z" fill="#F6F6F6"/>
<path d="M137.976 111.268L136.444 93.438L140.647 79.0953L149.435 72.0799L160.446 74.2646L170.765 85.0657L177.626 101.58L179.159 119.41L174.955 133.752L166.182 140.768L155.143 138.596L144.824 127.795L137.976 111.268Z" fill="#EDEDED"/>
<path d="M150.831 103.615L152.838 96.7489L157.747 95.5412L162.696 100.711L164.771 109.233L162.764 116.112L157.842 117.306L152.892 112.136L150.831 103.615Z" fill="#C6C6C6"/>
<path d="M190.712 103.683L191.417 101.295L190.265 100.1L187.227 105.922L176.596 124.064L175.525 126.506L176.664 127.714L190.712 103.683Z" fill="#706F6F"/>
<path d="M189.573 102.475L190.265 100.1L176.23 124.118L175.525 126.506L189.573 102.475Z" fill="#B2B2B2"/>
<path d="M188.529 93.4108L190.237 95.202L189.532 97.061L181.315 91.5654L166.751 82.6911L164.283 80.805L164.975 78.9324L188.529 93.4108Z" fill="#B2B2B2"/>
<path d="M187.824 95.2698L189.532 97.061L165.992 82.5961L164.283 80.805L187.824 95.2698Z" fill="#706F6F"/>
<path d="M185.396 98.1058L186.088 95.7176L184.935 94.5235L182.237 95.1613L142.166 86.7212L138.166 87.4132L139.319 88.6073L185.396 98.1058Z" fill="#706F6F"/>
<path d="M184.244 96.8982L184.935 94.5235L138.871 85.025L138.166 87.4132L184.244 96.8982Z" fill="#B2B2B2"/>
<path d="M186.115 101.091L187.837 102.882L187.268 104.877L176.867 111.865L151.645 132.314L149.34 132.504L149.923 130.509L186.115 101.091Z" fill="#B2B2B2"/>
<path d="M185.546 103.072L187.268 104.877L151.062 134.295L149.34 132.504L185.546 103.072Z" fill="#706F6F"/>
<path d="M187.851 100.453L190.617 103.52L190.522 104.863L187.878 105.515L184.949 102.462L187.851 100.453Z" fill="#706F6F"/>
<path d="M184.976 96.2875L183.729 97.4273L184.949 102.462L187.607 101.81L187.064 96.1383L184.976 96.2875Z" fill="#878787"/>
<path d="M184.922 93.3701L187.58 92.7324L188.57 94.6185L186.4 96.7896L183.729 97.4274L184.922 93.3701Z" fill="#B2B2B2"/>
<path d="M186.4 96.7896L187.58 92.7324L190.468 92.0132L193.397 95.0663L194.618 100.1L193.438 104.158L190.522 104.863L187.607 101.81L186.4 96.7896Z" fill="#9D9D9C"/>
<path d="M207.039 95.2155L208.679 97.0474L208.625 97.848L190.522 102.258L188.786 100.44L207.039 95.2155Z" fill="#706F6F"/>
<path d="M205.33 92.7459L188.054 97.468L188.786 100.44L206.89 96.0161L206.564 92.6509L205.33 92.7459Z" fill="#878787"/>
<path d="M188.759 95.0527L206.876 90.6156L207.459 91.7418L206.157 93.0445L188.054 97.468L188.759 95.0527Z" fill="#B2B2B2"/>
<path d="M206.157 93.0444L206.876 90.6155L208.585 90.1949L210.32 92.0132L211.066 94.9984L210.347 97.4273L208.625 97.848L206.889 96.0161L206.157 93.0444Z" fill="#9D9D9C"/>
<path d="M212.327 95.5955L217.494 101.322L217.345 103.832L212.382 105.04L206.93 99.3406L212.327 95.5955Z" fill="#706F6F"/>
<path d="M206.971 87.8338L204.638 89.9642L206.93 99.3406L211.893 98.1329L210.876 87.5353L206.971 87.8338Z" fill="#878787"/>
<path d="M206.862 82.3654L211.812 81.1713L213.67 84.6993L209.602 88.743L204.638 89.9642L206.862 82.3654Z" fill="#B2B2B2"/>
<path d="M209.602 88.743L211.812 81.1713L217.236 79.8551L222.687 85.5542L224.965 94.9306L222.755 102.516L217.345 103.832L211.893 98.1329L209.602 88.743Z" fill="#9D9D9C"/>
<defs>
<radialGradient id="paint0_radial_381_1208" cx="0" cy="0" r="1" gradientUnits="userSpaceOnUse" gradientTransform="translate(122.327 122.408) scale(122.327 122.408)">
<stop stop-color="#2B017F" stop-opacity="0"/>
<stop offset="0.96" stop-color="#03000B" stop-opacity="0.91"/>
<stop offset="1"/>
</radialGradient>
</defs>
</svg>
