<svg width="245" height="245" viewBox="0 0 245 245" fill="none" xmlns="http://www.w3.org/2000/svg">
<path style="mix-blend-mode:soft-light" d="M217.521 0H27.1206C12.1423 0 0 12.1503 0 27.1385V217.665C0 232.653 12.1423 244.803 27.1206 244.803H217.521C232.499 244.803 244.641 232.653 244.641 217.665V27.1385C244.641 12.1503 232.499 0 217.521 0Z" fill="url(#paint0_radial_381_1462)"/>
<path d="M170.372 182.791L159.117 185.695L157.205 188.965L170.833 203.729L182.44 201.11L170.372 182.791Z" fill="#1D1D1B"/>
<path d="M183.593 177.486L193.153 191.218L182.44 201.11L168.812 186.346L178.955 173.863L183.593 177.486Z" fill="#3C3C3B"/>
<path d="M196.692 179.847L183.064 165.07L177.776 167.947L179.539 176.441L193.153 191.218L196.692 179.847Z" fill="#706F6F"/>
<path d="M179.538 176.441L183.064 165.07L177.369 158.882L165.748 161.501L155.035 171.393L151.496 182.778L157.205 188.965L168.812 186.346L179.538 176.441Z" fill="#575756"/>
<path d="M177.111 184.542L190.17 168.123L195.377 151.379L191.336 138.814L179.145 133.779L162.046 137.633L144.648 149.357L131.589 165.762L126.382 182.52L130.423 195.085L142.614 200.12L159.713 196.266L177.111 184.542Z" fill="#C6C6C6"/>
<path d="M172.975 172.031L177.111 184.542L159.713 196.266L132.199 202.888L160.202 176.4L172.975 172.031Z" fill="#B2B2B2"/>
<path d="M198.984 141.215L190.17 168.123L177.111 184.542L170.358 177.228L189.098 149.37L198.984 141.215Z" fill="#DADADA"/>
<path d="M201.642 107.781L210.402 104.497L201.533 76.9377L198.347 73.464L193.695 82.8268L201.642 107.781Z" fill="#EDEDED"/>
<path d="M64.7911 196.863L67.9779 200.337L94.7187 211.355L96.1561 203.145L64.7911 196.863Z" fill="#B2B2B2"/>
<path d="M132.05 198.871L132.199 202.888L94.7187 211.355L91.5321 207.868L129.908 196.035L132.05 198.871Z" fill="#C6C6C6"/>
<path d="M168.934 170.281L170.358 177.228L132.199 202.888L128.999 199.414L166.588 171.19L168.934 170.281Z" fill="#DADADA"/>
<path d="M197.953 135.598L198.984 141.215L170.358 177.228L167.171 173.754L194.767 133.25L197.953 135.598Z" fill="#EDEDED"/>
<path d="M207.201 101.023L210.402 104.497L198.984 141.215L195.784 137.742L192.353 111.879L207.201 101.023Z" fill="#F6F6F6"/>
<path d="M167.171 173.754L195.784 137.742L207.201 101.023L198.347 73.464L171.606 62.4457L134.139 70.8994L95.9528 96.586L67.3541 132.585L55.9227 169.304L64.7911 196.863L91.5321 207.868L128.999 199.414L167.171 173.754Z" fill="white"/>
<path d="M162.236 168.408L183.146 142.097L191.485 115.284L185.017 95.1477L165.49 87.1011L138.112 93.2887L110.232 112.028L89.3218 138.352L80.9822 165.152L87.4369 185.302L106.991 193.348L134.369 187.174L162.236 168.408Z" fill="#F6F6F6"/>
<path d="M157.652 163.442L170.711 147.023L175.904 130.278L171.877 117.7L159.686 112.679L142.6 116.546L125.189 128.243L112.13 144.675L106.923 161.42L110.964 173.985L123.155 179.019L140.254 175.152L157.652 163.442Z" fill="#EDEDED"/>
<path d="M150.058 147.62L152.553 139.601L148.526 135.245L140.336 137.09L132.783 144.065L130.287 152.084L134.315 156.454L142.505 154.608L150.058 147.62Z" fill="#C6C6C6"/>
<path d="M111.018 121.784L111.886 119.002L113.784 118.582L112.971 126.248L111.601 150.89L111.072 153.97L109.174 154.391L111.018 121.784Z" fill="#706F6F"/>
<path d="M112.917 121.363L113.784 118.582L111.94 151.175L111.072 153.97L112.917 121.363Z" fill="#B2B2B2"/>
<path d="M119.819 113.168L116.985 113.819L116.469 116.085L128.064 116.058L148.065 116.831L151.699 116.587L152.228 114.307L119.819 113.168Z" fill="#B2B2B2"/>
<path d="M119.317 115.447L116.469 116.085L148.851 117.225L151.699 116.587L119.317 115.447Z" fill="#706F6F"/>
<path d="M119.846 119.803L120.7 117.021L122.612 116.587L124.836 118.962L169.477 136.738L172.934 140.008L171.036 140.428L119.846 119.803Z" fill="#706F6F"/>
<path d="M121.744 119.369L122.612 116.587L173.802 137.212L172.935 140.008L121.744 119.369Z" fill="#B2B2B2"/>
<path d="M117.202 122.232L114.354 122.87L113.622 125.204L119.263 138.786L130.653 175.152L132.782 176.821L133.501 174.501L117.202 122.232Z" fill="#B2B2B2"/>
<path d="M116.469 124.552L113.622 125.204L129.935 177.459L132.782 176.821L116.469 124.552Z" fill="#706F6F"/>
<path d="M115.913 120.495L111.235 121.703L110.435 123.073L112.618 125.421L117.446 124.335L115.913 120.495Z" fill="#706F6F"/>
<path d="M121.432 118.283L121.907 120.224L117.446 124.335L115.276 121.988L119.493 116.791L121.432 118.283Z" fill="#878787"/>
<path d="M123.372 115.474L121.188 113.127L118.992 114.335L119.724 117.863L121.907 120.224L123.372 115.474Z" fill="#B2B2B2"/>
<path d="M119.724 117.863L121.188 113.127L118.829 110.549L113.988 111.634L109.54 115.759L108.062 120.495L110.435 123.073L115.276 121.988L119.724 117.863Z" fill="#9D9D9C"/>
<path d="M100.55 102.923L97.7697 103.642L97.2952 104.456L112.144 120.536L115.018 119.884L100.55 102.923Z" fill="#706F6F"/>
<path d="M103.831 101.607L117.649 117.442L115.019 119.885L100.184 103.805L102.679 100.711L103.831 101.607Z" fill="#878787"/>
<path d="M118.531 114.62L103.696 98.5265L102.394 99.2457L102.828 101.362L117.649 117.442L118.531 114.62Z" fill="#B2B2B2"/>
<path d="M102.828 101.362L103.696 98.5265L102.299 97.0067L99.4242 97.658L96.7527 100.101L95.8984 102.936L97.2952 104.456L100.184 103.805L102.828 101.362Z" fill="#9D9D9C"/>
<path d="M95.139 99.8562L86.3791 102.109L84.901 104.66L88.9555 109.056L97.9867 107.021L95.139 99.8562Z" fill="#706F6F"/>
<path d="M105.404 95.7447L106.313 99.3406L97.9868 107.021L93.9323 102.611L101.797 92.9223L105.404 95.7447Z" fill="#878787"/>
<path d="M109.065 90.4798L104.997 86.0834L100.889 88.3359L102.245 94.9306L106.313 99.3406L109.065 90.4798Z" fill="#B2B2B2"/>
<path d="M102.245 94.9306L104.997 86.0834L100.55 81.2799L91.532 83.3153L83.2196 91.0091L80.4668 99.8427L84.901 104.66L93.9322 102.611L102.245 94.9306Z" fill="#9D9D9C"/>
<path d="M60.7773 90.6292C60.7773 90.6292 59.028 79.8959 69.6729 69.7596C80.3177 59.6234 91.4371 61.4416 91.4371 61.4416" stroke="#FFDC00" stroke-width="3" stroke-miterlimit="10" stroke-linecap="round"/>
<path d="M46.1456 88.2952C46.1456 88.2952 43.6777 73.1791 58.6889 58.8906C73.7002 44.6022 89.3624 47.1803 89.3624 47.1803" stroke="#FFDC00" stroke-width="3" stroke-miterlimit="10" stroke-linecap="round"/>
<path d="M31.9616 84.4008C31.9616 84.4008 28.9105 65.7567 47.4339 48.1302C65.9573 30.5037 85.2672 33.6789 85.2672 33.6789" stroke="#FFDC00" stroke-width="3" stroke-miterlimit="10" stroke-linecap="round"/>
<defs>
<radialGradient id="paint0_radial_381_1462" cx="0" cy="0" r="1" gradientUnits="userSpaceOnUse" gradientTransform="translate(122.327 -289.731) scale(122.327 122.408)">
<stop stop-color="#2B017F" stop-opacity="0"/>
<stop offset="0.96" stop-color="#03000B" stop-opacity="0.91"/>
<stop offset="1"/>
</radialGradient>
</defs>
</svg>
