<svg width="245" height="245" viewBox="0 0 245 245" fill="none" xmlns="http://www.w3.org/2000/svg">
<path style="mix-blend-mode:soft-light" d="M217.521 0H27.1206C12.1423 0 0 12.1503 0 27.1385V217.665C0 232.653 12.1423 244.803 27.1206 244.803H217.521C232.499 244.803 244.641 232.653 244.641 217.665V27.1385C244.641 12.1503 232.499 0 217.521 0Z" fill="url(#paint0_radial_381_1335)"/>
<path d="M56.8582 115.352H52.641V244.817H56.8582V115.352Z" fill="white"/>
<path d="M102.19 162.709L99.2072 165.721L53.3326 119.45L56.3159 116.451L102.19 162.709Z" fill="white"/>
<path d="M103.153 115.352H98.9359V244.817H103.153V115.352Z" fill="white"/>
<path d="M53.3326 162.709L56.3159 165.721L102.19 119.45L99.2072 116.451L53.3326 162.709Z" fill="white"/>
<path d="M101.051 164.921H54.7565V169.182H101.051V164.921Z" fill="white"/>
<path d="M102.19 214.462L99.2072 217.461L53.3326 171.203L56.3159 168.191L102.19 214.462Z" fill="white"/>
<path d="M53.3326 214.462L56.3159 217.461L102.19 171.203L99.2072 168.191L53.3326 214.462Z" fill="white"/>
<path d="M101.051 216.172H54.7565V220.433H101.051V216.172Z" fill="white"/>
<path d="M105.038 115.108H50.485V119.369H105.038V115.108Z" fill="white"/>
<path d="M105.038 109.233H50.7561V110.712H105.038V109.233Z" fill="white"/>
<path d="M101.77 109.233H100.305V115.352H101.77V109.233Z" fill="white"/>
<path d="M55.4887 109.233H54.0242V115.352H55.4887V109.233Z" fill="white"/>
<path d="M70.9203 109.233H69.4558V115.352H70.9203V109.233Z" fill="white"/>
<path d="M86.3519 109.233H84.8875V115.352H86.3519V109.233Z" fill="white"/>
<path opacity="0.2" d="M155.74 198.491H125.623V244.817H155.74V198.491Z" fill="url(#paint1_linear_381_1335)"/>
<path opacity="0.2" d="M160.947 193.688H120.443V244.803H160.947V193.688Z" fill="url(#paint2_linear_381_1335)"/>
<path opacity="0.2" d="M167.619 230.203C163.076 230.203 159.035 234.273 156.527 240.542C153.028 228.764 146.79 220.935 139.685 220.935C132.579 220.935 126.45 228.656 122.938 240.271C120.958 236.879 118.137 234.762 115.005 234.762C110.652 234.762 106.896 238.873 105.147 244.817H180.081C177.87 236.187 173.124 230.216 167.605 230.216L167.619 230.203Z" fill="url(#paint3_linear_381_1335)"/>
<path opacity="0.2" d="M189.098 233.011C186.251 233.011 183.769 235.264 182.373 238.643C181.356 238.073 180.189 237.747 178.942 237.747C175.05 237.747 171.89 240.909 171.89 244.803H196.977C196.977 238.29 193.451 233.011 189.098 233.011Z" fill="url(#paint4_linear_381_1335)"/>
<path opacity="0.2" d="M105.743 239.796C105.255 239.796 104.794 239.864 104.347 240C103.113 235.888 100.36 233.011 97.1596 233.011C94.3119 233.011 91.8303 235.264 90.4336 238.643C89.4166 238.073 88.2505 237.747 87.0029 237.747C83.1111 237.747 79.9515 240.909 79.9515 244.803H110.747C110.747 242.035 108.51 239.796 105.743 239.796Z" fill="url(#paint5_linear_381_1335)"/>
<path d="M129.514 198.369H121.758C121.026 198.369 120.443 197.772 120.443 197.053V156.101C120.443 148.231 121.744 140.415 124.294 132.965C124.728 131.676 126.558 131.676 126.992 132.965C129.541 140.415 130.843 148.231 130.843 156.101V197.053C130.843 197.786 130.247 198.369 129.528 198.369H129.514Z" fill="#008CDA"/>
<path d="M123.711 191.327C123.711 191.082 123.914 190.879 124.158 190.879H127.128C127.372 190.879 127.575 191.082 127.575 191.327C127.575 191.571 127.372 191.774 127.128 191.774H124.158C123.914 191.774 123.711 191.571 123.711 191.327Z" fill="#1F4888"/>
<path d="M123.711 192.955C123.711 192.711 123.914 192.507 124.158 192.507H127.128C127.372 192.507 127.575 192.711 127.575 192.955C127.575 193.199 127.372 193.403 127.128 193.403H124.158C123.914 193.403 123.711 193.199 123.711 192.955Z" fill="#1F4888"/>
<path d="M123.711 194.583C123.711 194.339 123.914 194.136 124.158 194.136H127.128C127.372 194.136 127.575 194.339 127.575 194.583C127.575 194.828 127.372 195.031 127.128 195.031H124.158C123.914 195.031 123.711 194.828 123.711 194.583Z" fill="#1F4888"/>
<path d="M130.83 183.986H120.443V185.533H130.83V183.986Z" fill="#1A4D80"/>
<path d="M130.83 179.345H120.443V180.892H130.83V179.345Z" fill="#1A4D80"/>
<path opacity="0.2" d="M121.568 168.992V187.527C121.568 188.911 123.711 188.911 123.711 187.527V168.992C123.711 167.608 121.568 167.608 121.568 168.992Z" fill="white"/>
<path opacity="0.2" d="M121.568 159.832V163.632C121.568 165.016 123.711 165.016 123.711 163.632V159.832C123.711 158.448 121.568 158.448 121.568 159.832Z" fill="white"/>
<path d="M151.862 198.369H159.618C160.351 198.369 160.934 197.772 160.934 197.053V156.101C160.934 148.231 159.632 140.415 157.082 132.965C156.649 131.676 154.818 131.676 154.384 132.965C151.835 140.415 150.533 148.231 150.533 156.101V197.053C150.533 197.786 151.13 198.369 151.848 198.369H151.862Z" fill="#008CDA"/>
<path d="M157.666 191.327C157.666 191.082 157.462 190.879 157.218 190.879H154.248C154.004 190.879 153.801 191.082 153.801 191.327C153.801 191.571 154.004 191.774 154.248 191.774H157.218C157.462 191.774 157.666 191.571 157.666 191.327Z" fill="#1F4888"/>
<path d="M157.666 192.955C157.666 192.711 157.462 192.507 157.218 192.507H154.248C154.004 192.507 153.801 192.711 153.801 192.955C153.801 193.199 154.004 193.403 154.248 193.403H157.218C157.462 193.403 157.666 193.199 157.666 192.955Z" fill="#1F4888"/>
<path d="M157.666 194.583C157.666 194.339 157.462 194.136 157.218 194.136H154.248C154.004 194.136 153.801 194.339 153.801 194.583C153.801 194.828 154.004 195.031 154.248 195.031H157.218C157.462 195.031 157.666 194.828 157.666 194.583Z" fill="#1F4888"/>
<path d="M150.546 185.519H160.934V183.972H150.546V185.519Z" fill="#1A4D80"/>
<path d="M150.546 180.892H160.934V179.345H150.546V180.892Z" fill="#1A4D80"/>
<path opacity="0.2" d="M159.808 168.992V187.527C159.808 188.911 157.666 188.911 157.666 187.527V168.992C157.666 167.608 159.808 167.608 159.808 168.992Z" fill="white"/>
<path opacity="0.2" d="M159.808 159.832V163.632C159.808 165.016 157.666 165.016 157.666 163.632V159.832C157.666 158.448 159.808 158.448 159.808 159.832Z" fill="white"/>
<path d="M155.74 198.369H125.636V90.9005C125.636 74.0882 127.507 57.3437 131.209 40.952H150.167C153.869 57.3437 155.74 74.0882 155.74 90.887V198.369Z" fill="#FAFEFE"/>
<path d="M126.911 200.106H139.4C139.4 200.676 138.939 201.137 138.369 201.137H127.941C127.372 201.137 126.911 200.676 126.911 200.106Z" fill="#2E282D"/>
<path d="M138.654 200.391H127.657C126.531 200.391 125.623 199.482 125.623 198.356H140.675C140.675 199.482 139.766 200.391 138.64 200.391H138.654Z" fill="#1F4888"/>
<path d="M141.963 200.106H154.452C154.452 200.676 153.991 201.137 153.421 201.137H142.993C142.424 201.137 141.963 200.676 141.963 200.106Z" fill="#2E282D"/>
<path d="M153.706 200.391H142.709C141.583 200.391 140.675 199.482 140.675 198.356H155.726C155.726 199.482 154.818 200.391 153.692 200.391H153.706Z" fill="#1F4888"/>
<path d="M150.167 40.9521H131.209C131.399 40.0022 131.603 39.0795 131.806 38.1975C131.955 37.5326 132.104 36.8813 132.254 36.2435C134.844 25.2931 137.691 19.2412 140.688 19.2412C143.685 19.2412 146.533 25.2931 149.123 36.2435C149.272 36.8813 149.421 37.5326 149.57 38.1975C149.773 39.0931 149.963 40.0158 150.167 40.9521Z" fill="#9D9D9C"/>
<path d="M149.57 38.1839H131.806C131.955 37.519 132.104 36.8677 132.254 36.23H149.123C149.272 36.8677 149.421 37.519 149.57 38.1839Z" fill="#FAFEFE"/>
<path d="M137.773 65.4717H143.604C144.539 65.4717 145.299 66.2316 145.299 67.1679V97.6445C145.299 98.5807 144.539 99.3406 143.604 99.3406H137.773C136.837 99.3406 136.078 98.5807 136.078 97.6445V67.1679C136.078 66.2316 136.837 65.4717 137.773 65.4717Z" fill="#008CDA"/>
<path opacity="0.1" d="M143.604 65.4717H137.773C136.837 65.4717 136.078 66.2316 136.078 67.1679V86.4362L145.285 80.6693V67.1543C145.285 66.218 144.526 65.4581 143.59 65.4581L143.604 65.4717Z" fill="white"/>
<path opacity="0.1" d="M136.078 92.0675L145.299 86.4362V92.0675L136.078 97.2238V92.0675Z" fill="white"/>
<path opacity="0.1" d="M150.343 101.96V107.93C150.343 110.101 153.706 110.101 153.706 107.93V101.96C153.706 99.7884 150.343 99.7884 150.343 101.96Z" fill="#383838"/>
<path d="M144.566 198.369H136.81C136.078 198.369 135.495 197.772 135.495 197.053V156.101C135.495 148.231 136.796 140.415 139.346 132.965C139.78 131.676 141.61 131.676 142.044 132.965C144.593 140.415 145.895 148.231 145.895 156.101V197.053C145.895 197.786 145.299 198.369 144.58 198.369H144.566Z" fill="#008CDA"/>
<path d="M138.762 191.327C138.762 191.082 138.966 190.879 139.21 190.879H142.18C142.424 190.879 142.627 191.082 142.627 191.327C142.627 191.571 142.424 191.774 142.18 191.774H139.21C138.966 191.774 138.762 191.571 138.762 191.327Z" fill="#1F4888"/>
<path d="M138.762 192.955C138.762 192.711 138.966 192.507 139.21 192.507H142.18C142.424 192.507 142.627 192.711 142.627 192.955C142.627 193.199 142.424 193.403 142.18 193.403H139.21C138.966 193.403 138.762 193.199 138.762 192.955Z" fill="#1F4888"/>
<path d="M138.762 194.583C138.762 194.339 138.966 194.136 139.21 194.136H142.18C142.424 194.136 142.627 194.339 142.627 194.583C142.627 194.828 142.424 195.031 142.18 195.031H139.21C138.966 195.031 138.762 194.828 138.762 194.583Z" fill="#1F4888"/>
<path d="M145.882 183.986H135.495V185.533H145.882V183.986Z" fill="#1A4D80"/>
<path d="M145.882 179.345H135.495V180.892H145.882V179.345Z" fill="#1A4D80"/>
<path opacity="0.2" d="M136.62 168.992V187.527C136.62 188.911 138.763 188.911 138.763 187.527V168.992C138.763 167.608 136.62 167.608 136.62 168.992Z" fill="white"/>
<path opacity="0.2" d="M136.62 159.832V163.632C136.62 165.016 138.763 165.016 138.763 163.632V159.832C138.763 158.448 136.62 158.448 136.62 159.832Z" fill="white"/>
<path opacity="0.1" d="M150.343 116.343V145.463C150.343 147.634 153.706 147.634 153.706 145.463V116.343C153.706 114.172 150.343 114.172 150.343 116.343Z" fill="#383838"/>
<defs>
<radialGradient id="paint0_radial_381_1335" cx="0" cy="0" r="1" gradientUnits="userSpaceOnUse" gradientTransform="translate(122.314 122.408) scale(122.327 122.408)">
<stop stop-color="#2B017F" stop-opacity="0"/>
<stop offset="0.96" stop-color="#03000B" stop-opacity="0.91"/>
<stop offset="1"/>
</radialGradient>
<linearGradient id="paint1_linear_381_1335" x1="140.675" y1="244.803" x2="140.675" y2="198.831" gradientUnits="userSpaceOnUse">
<stop offset="0.06" stop-color="white" stop-opacity="0"/>
<stop offset="0.16" stop-color="white" stop-opacity="0.02"/>
<stop offset="0.28" stop-color="white" stop-opacity="0.08"/>
<stop offset="0.41" stop-color="white" stop-opacity="0.17"/>
<stop offset="0.55" stop-color="white" stop-opacity="0.31"/>
<stop offset="0.69" stop-color="white" stop-opacity="0.47"/>
<stop offset="0.71" stop-color="white" stop-opacity="0.5"/>
<stop offset="0.72" stop-color="white" stop-opacity="0.52"/>
<stop offset="0.85" stop-color="white" stop-opacity="0.78"/>
<stop offset="0.95" stop-color="white" stop-opacity="0.94"/>
<stop offset="1" stop-color="white"/>
</linearGradient>
<linearGradient id="paint2_linear_381_1335" x1="140.688" y1="-3.39229" x2="140.688" y2="194.068" gradientUnits="userSpaceOnUse">
<stop offset="0.06" stop-color="white" stop-opacity="0"/>
<stop offset="0.16" stop-color="white" stop-opacity="0.02"/>
<stop offset="0.28" stop-color="white" stop-opacity="0.08"/>
<stop offset="0.41" stop-color="white" stop-opacity="0.17"/>
<stop offset="0.55" stop-color="white" stop-opacity="0.31"/>
<stop offset="0.69" stop-color="white" stop-opacity="0.47"/>
<stop offset="0.71" stop-color="white" stop-opacity="0.5"/>
<stop offset="0.72" stop-color="white" stop-opacity="0.52"/>
<stop offset="0.85" stop-color="white" stop-opacity="0.78"/>
<stop offset="0.95" stop-color="white" stop-opacity="0.94"/>
<stop offset="1" stop-color="white"/>
</linearGradient>
<linearGradient id="paint3_linear_381_1335" x1="142.614" y1="220.813" x2="142.614" y2="244.328" gradientUnits="userSpaceOnUse">
<stop offset="0.06" stop-color="white" stop-opacity="0"/>
<stop offset="0.2" stop-color="white" stop-opacity="0.16"/>
<stop offset="0.35" stop-color="white" stop-opacity="0.31"/>
<stop offset="0.49" stop-color="white" stop-opacity="0.41"/>
<stop offset="0.61" stop-color="white" stop-opacity="0.48"/>
<stop offset="0.71" stop-color="white" stop-opacity="0.5"/>
<stop offset="0.72" stop-color="white" stop-opacity="0.52"/>
<stop offset="0.85" stop-color="white" stop-opacity="0.78"/>
<stop offset="0.95" stop-color="white" stop-opacity="0.94"/>
<stop offset="1" stop-color="white"/>
</linearGradient>
<linearGradient id="paint4_linear_381_1335" x1="184.434" y1="232.157" x2="184.434" y2="244.993" gradientUnits="userSpaceOnUse">
<stop offset="0.06" stop-color="white" stop-opacity="0"/>
<stop offset="0.2" stop-color="white" stop-opacity="0.16"/>
<stop offset="0.35" stop-color="white" stop-opacity="0.31"/>
<stop offset="0.49" stop-color="white" stop-opacity="0.41"/>
<stop offset="0.61" stop-color="white" stop-opacity="0.48"/>
<stop offset="0.71" stop-color="white" stop-opacity="0.5"/>
<stop offset="0.72" stop-color="white" stop-opacity="0.52"/>
<stop offset="0.85" stop-color="white" stop-opacity="0.78"/>
<stop offset="0.95" stop-color="white" stop-opacity="0.94"/>
<stop offset="1" stop-color="white"/>
</linearGradient>
<linearGradient id="paint5_linear_381_1335" x1="95.3561" y1="232.903" x2="95.3561" y2="245.183" gradientUnits="userSpaceOnUse">
<stop offset="0.06" stop-color="white" stop-opacity="0"/>
<stop offset="0.2" stop-color="white" stop-opacity="0.16"/>
<stop offset="0.35" stop-color="white" stop-opacity="0.31"/>
<stop offset="0.49" stop-color="white" stop-opacity="0.41"/>
<stop offset="0.61" stop-color="white" stop-opacity="0.48"/>
<stop offset="0.71" stop-color="white" stop-opacity="0.5"/>
<stop offset="0.72" stop-color="white" stop-opacity="0.52"/>
<stop offset="0.85" stop-color="white" stop-opacity="0.78"/>
<stop offset="0.95" stop-color="white" stop-opacity="0.94"/>
<stop offset="1" stop-color="white"/>
</linearGradient>
</defs>
</svg>
