<svg width="245" height="245" viewBox="0 0 245 245" fill="none" xmlns="http://www.w3.org/2000/svg">
<path style="mix-blend-mode:soft-light" d="M217.521 0H27.1206C12.1423 0 0 12.1503 0 27.1385V217.665C0 232.653 12.1423 244.803 27.1206 244.803H217.521C232.499 244.803 244.641 232.653 244.641 217.665V27.1385C244.641 12.1503 232.499 0 217.521 0Z" fill="url(#paint0_radial_381_1519)"/>
<path d="M147.834 51.7939H87.5317V40.0158L135.806 21.4395H147.834V51.7939Z" fill="#E0E0E0"/>
<path d="M160.662 59.447H79.4498V52.3503L148.634 33.0955H160.662V59.447Z" fill="#D1D1D1"/>
<path d="M162.696 58.5242H76.8597V244.871H162.696V58.5242Z" fill="white"/>
<path d="M164.242 54.8198H75.1918V70.126H164.242V54.8198Z" fill="#BFBFBF"/>
<path d="M158.14 75.798H148.024V97.5359H158.14V75.798Z" fill="#008CDA"/>
<path d="M148.024 84.8079L158.14 81.4835V75.798H148.024V84.8079Z" fill="#00A1E8"/>
<path d="M158.14 103.737H148.024V125.475H158.14V103.737Z" fill="#008CDA"/>
<path d="M148.024 112.747L158.14 109.422V103.737H148.024V112.747Z" fill="#00A1E8"/>
<path d="M158.14 131.676H148.024V153.414H158.14V131.676Z" fill="#008CDA"/>
<path d="M148.024 140.686L158.14 137.362V131.676H148.024V140.686Z" fill="#00A1E8"/>
<path d="M158.14 159.615H148.024V181.353H158.14V159.615Z" fill="#008CDA"/>
<path d="M148.024 168.625L158.14 165.301V159.615H148.024V168.625Z" fill="#00A1E8"/>
<path d="M158.14 187.554H148.024V209.292H158.14V187.554Z" fill="#008CDA"/>
<path d="M148.024 196.564L158.14 193.24V187.554H148.024V196.564Z" fill="#00A1E8"/>
<path d="M158.14 215.494H148.024V237.232H158.14V215.494Z" fill="#008CDA"/>
<path d="M148.024 224.504L158.14 221.179V215.494H148.024V224.504Z" fill="#00A1E8"/>
<path d="M92.5762 75.798H82.4602V97.5359H92.5762V75.798Z" fill="#008CDA"/>
<path d="M82.4602 84.8079L92.5898 81.4835V75.798H82.4602V84.8079Z" fill="#00A1E8"/>
<path d="M92.5761 103.737H82.4601V125.475H92.5761V103.737Z" fill="#008CDA"/>
<path d="M82.4601 112.747L92.5897 109.422V103.737H82.4601V112.747Z" fill="#00A1E8"/>
<path d="M92.5762 131.676H82.4602V153.414H92.5762V131.676Z" fill="#008CDA"/>
<path d="M82.4602 140.686L92.5898 137.362V131.676H82.4602V140.686Z" fill="#00A1E8"/>
<path d="M92.5762 159.615H82.4602V181.353H92.5762V159.615Z" fill="#008CDA"/>
<path d="M82.4602 168.625L92.5898 165.301V159.615H82.4602V168.625Z" fill="#00A1E8"/>
<path d="M92.5762 187.554H82.4602V209.292H92.5762V187.554Z" fill="#008CDA"/>
<path d="M82.4602 196.564L92.5898 193.24V187.554H82.4602V196.564Z" fill="#00A1E8"/>
<path d="M92.5762 215.494H82.4602V237.232H92.5762V215.494Z" fill="#008CDA"/>
<path d="M82.4602 224.504L92.5898 221.179V215.494H82.4602V224.504Z" fill="#00A1E8"/>
<path d="M118.056 75.798H97.268V125.475H118.056V75.798Z" fill="#0073A5"/>
<path d="M142.709 75.798H121.934V125.475H142.709V75.798Z" fill="#0073A5"/>
<path d="M97.268 104.293L118.056 96.3961V75.798H97.268V104.293Z" fill="#0086B5"/>
<path d="M121.934 94.9171L142.709 87.0333V75.798H121.934V94.9171Z" fill="#0086B5"/>
<path d="M118.11 132.572H97.3223V182.249H118.11V132.572Z" fill="#0073A5"/>
<path d="M142.776 132.572H121.988V182.249H142.776V132.572Z" fill="#0073A5"/>
<path d="M97.3223 161.067L118.11 153.17V132.572H97.3223V161.067Z" fill="#0086B5"/>
<path d="M121.988 151.691L142.776 143.807V132.572H121.988V151.691Z" fill="#0086B5"/>
<path d="M118.178 189.346H97.3901V239.023H118.178V189.346Z" fill="#0073A5"/>
<path d="M142.831 189.346H122.056V239.023H142.831V189.346Z" fill="#0073A5"/>
<path d="M97.3901 217.827L118.178 209.944V189.346H97.3901V217.827Z" fill="#0086B5"/>
<path d="M122.056 208.465L142.844 200.567V189.346H122.056V208.465Z" fill="#0086B5"/>
<defs>
<radialGradient id="paint0_radial_381_1519" cx="0" cy="0" r="1" gradientUnits="userSpaceOnUse" gradientTransform="translate(122.314 -289.731) scale(0.678015 0.678463)">
<stop stop-color="#2B017F" stop-opacity="0"/>
<stop offset="0.96" stop-color="#03000B" stop-opacity="0.91"/>
<stop offset="1"/>
</radialGradient>
</defs>
</svg>
