<svg width="245" height="245" viewBox="0 0 245 245" fill="none" xmlns="http://www.w3.org/2000/svg">
<path style="mix-blend-mode:soft-light" d="M217.521 0H27.1206C12.1423 0 0 12.1503 0 27.1385V217.665C0 232.653 12.1423 244.803 27.1206 244.803H217.521C232.499 244.803 244.641 232.653 244.641 217.665V27.1385C244.641 12.1503 232.499 0 217.521 0Z" fill="url(#paint0_radial_381_1138)"/>
<path d="M109.106 155.775V166.061L96.1968 167.553H85.4706L83.2874 166.902V154.934L85.4706 154.283H96.1968L109.106 155.775Z" fill="#BFBFBF"/>
<path d="M81.5652 160.918C81.5652 161.868 82.3381 162.641 83.2873 162.641V159.195C82.3381 159.195 81.5652 159.968 81.5652 160.918Z" fill="#C23131"/>
<path d="M83.2874 160.918V166.902L85.4706 167.553H96.1968V160.918H83.2874Z" fill="#D1D1D1"/>
<path d="M83.2874 166.902L85.4706 167.553V154.283L83.2874 154.934V166.902Z" fill="#D1D1D1"/>
<path d="M109.106 160.918V155.775L96.1967 154.283V160.918H109.106Z" fill="#9C9C9C"/>
<path d="M189.858 131.31L214.144 158.638H222.728L210.076 127.307L189.858 131.31Z" fill="#BFBFBF"/>
<path d="M193.6 130.564L189.858 131.31L214.144 158.638H215.609L193.6 130.564Z" fill="#E0E0E0"/>
<path d="M222.185 157.295L210.781 129.044L205.398 130.102L218.85 157.295H222.185Z" fill="#D1D1D1"/>
<path d="M137.203 163.537C137.203 164.555 128.511 164.555 128.511 164.555V162.506C128.511 162.506 137.203 162.506 137.203 163.523V163.537Z" fill="#9C9C9C"/>
<path d="M132.85 147.769C132.85 148.787 124.158 148.801 124.158 148.801V146.752C124.158 146.752 132.85 146.752 132.85 147.769Z" fill="#9C9C9C"/>
<path d="M132.85 138.759C132.85 139.777 124.158 139.777 124.158 139.777V137.728C124.158 137.728 132.85 137.728 132.85 138.746V138.759Z" fill="#9C9C9C"/>
<path d="M143.034 179.413C143.034 180.444 134.342 180.431 134.342 180.431V178.382C134.342 178.382 143.034 178.382 143.034 179.399V179.413Z" fill="#9C9C9C"/>
<path d="M148.011 192.589C148.011 193.606 139.319 193.606 139.319 193.606V191.557C139.319 191.557 148.011 191.557 148.011 192.575V192.589Z" fill="#9C9C9C"/>
<path d="M156.065 225.44L129.487 153.726V135.448H86.1215L147.889 225.44H156.065Z" fill="#BFBFBF"/>
<path d="M151.97 225.44H156.065L129.487 153.726V135.448H117.934V155.653L151.97 225.44Z" fill="#D1D1D1"/>
<path d="M147.889 225.44L90.6235 135.448H86.1215L147.889 225.44Z" fill="#E0E0E0"/>
<path d="M114.707 135.448H96.7663V141.229H114.707V135.448Z" fill="#D1D1D1"/>
<path d="M100.468 137.809H98.4207V138.881H100.468V139.75L102.909 138.339L100.468 136.928V137.809Z" fill="#9C9C9C"/>
<path d="M105.526 137.809H103.492V138.881H105.526V139.75L107.981 138.339L105.526 136.928V137.809Z" fill="#9C9C9C"/>
<path d="M110.598 137.809H108.55V138.881H110.598V139.75L113.039 138.339L110.598 136.928V137.809Z" fill="#9C9C9C"/>
<path d="M129.487 136.928H122.992V151.976H129.487V136.928Z" fill="#E0E0E0"/>
<path d="M131.616 159.493H125.284L141.434 196.334L145.271 196.32L131.616 159.493Z" fill="#E0E0E0"/>
<path d="M147.495 202.318H144.065L153.069 222.875H155.116L147.495 202.318Z" fill="#E0E0E0"/>
<path d="M109.106 89.028V78.7425L96.1968 77.2499H85.4706L83.2874 77.9012V89.8828L85.4706 90.5206H96.1968L109.106 89.028Z" fill="#BFBFBF"/>
<path d="M81.5652 83.8852C81.5652 82.9354 82.3381 82.1619 83.2873 82.1619V85.6221C82.3381 85.6221 81.5652 84.8487 81.5652 83.8988V83.8852Z" fill="#C23131"/>
<path d="M83.2874 83.8852V77.9012L85.4706 77.2499H96.1968V83.8852H83.2874Z" fill="#D1D1D1"/>
<path d="M83.2874 77.9012L85.4706 77.2499V90.5206L83.2874 89.8828V77.9012Z" fill="#D1D1D1"/>
<path d="M109.106 83.8852V89.028L96.1967 90.5206V83.8852H109.106Z" fill="#9C9C9C"/>
<path d="M137.203 81.2664C137.203 80.2487 128.511 80.2487 128.511 80.2487V82.2976C128.511 82.2976 137.203 82.2976 137.203 81.2799V81.2664Z" fill="#9C9C9C"/>
<path d="M132.85 97.0339C132.85 96.0162 124.158 96.0162 124.158 96.0162V98.0651C124.158 98.0651 132.85 98.0651 132.85 97.0474V97.0339Z" fill="#9C9C9C"/>
<path d="M132.85 106.044C132.85 105.026 124.158 105.026 124.158 105.026V107.075C124.158 107.075 132.85 107.075 132.85 106.057V106.044Z" fill="#9C9C9C"/>
<path d="M143.034 65.3903C143.034 64.3726 134.342 64.3591 134.342 64.3591V66.408C134.342 66.408 143.034 66.408 143.034 65.3903Z" fill="#9C9C9C"/>
<path d="M148.011 52.2145C148.011 51.1969 139.319 51.1969 139.319 51.1969V53.2458C139.319 53.2458 148.011 53.2458 148.011 52.2281V52.2145Z" fill="#9C9C9C"/>
<path d="M156.065 19.3634L129.487 91.077V109.355H86.1215L147.889 19.3634H156.065Z" fill="#BFBFBF"/>
<path d="M151.97 19.3634H156.065L129.487 91.077V109.355H117.934L117.92 89.1501L151.97 19.3634Z" fill="#D1D1D1"/>
<path d="M147.889 19.3634L90.6235 109.355H86.1215L147.889 19.3634Z" fill="#E0E0E0"/>
<path d="M114.707 103.574H96.7663V109.355H114.707V103.574Z" fill="#D1D1D1"/>
<path d="M100.468 106.994H98.4207V105.922H100.468V105.053L102.909 106.465L100.468 107.876V106.994Z" fill="#9C9C9C"/>
<path d="M105.526 106.994H103.492V105.922H105.526V105.053L107.981 106.465L105.526 107.876V106.994Z" fill="#9C9C9C"/>
<path d="M110.598 106.994H108.55V105.922H110.598V105.053L113.039 106.465L110.598 107.876V106.994Z" fill="#9C9C9C"/>
<path d="M129.487 92.8274H122.992V107.876H129.487V92.8274Z" fill="#E0E0E0"/>
<path d="M131.616 85.31H125.284L141.434 48.483H145.271L131.616 85.31Z" fill="#E0E0E0"/>
<path d="M147.495 42.4854H144.051L153.069 21.928H155.116L147.495 42.4854Z" fill="#E0E0E0"/>
<path d="M189.858 113.493L214.144 86.1649H222.728L210.076 117.496L189.858 113.493Z" fill="#BFBFBF"/>
<path d="M193.6 114.24L189.858 113.493L214.144 86.1649H215.609L193.6 114.24Z" fill="#E0E0E0"/>
<path d="M222.185 87.5082L210.781 115.759L205.398 114.701L218.85 87.5082H222.185Z" fill="#D1D1D1"/>
<path d="M219.867 119.437V125.367L184.691 132.328L158.927 135.448H41.5487C35.989 135.448 23.5542 127.958 23.5542 122.408C23.5542 116.845 35.989 109.368 41.5487 109.368H159.333L183.878 112.489L219.867 119.45V119.437Z" fill="#E0E0E0"/>
<path d="M23.5542 122.408H219.867V119.437L184.691 112.476L158.927 109.355H41.5487C35.989 109.355 23.5542 116.845 23.5542 122.395V122.408Z" fill="#D1D1D1"/>
<path d="M219.867 125.366V119.437L183.878 112.476L159.334 109.355H158.927V135.448L184.691 132.328L219.867 125.366Z" fill="#D1D1D1"/>
<path d="M219.867 122.408V119.437L183.878 112.476L159.334 109.355H158.927V122.408H219.867Z" fill="#BFBFBF"/>
<path d="M219.867 121.486V123.073L176.813 124.403V120.156L219.867 121.486Z" fill="#E0E0E0"/>
<path d="M34.1719 128.501L36.7213 126.33C36.1246 125.285 35.7585 124.091 35.7042 122.829H32.165C32.2599 124.959 32.9786 126.913 34.1855 128.515L34.1719 128.501Z" fill="#2B2B2B"/>
<path d="M32.1515 121.974H35.6907C35.7585 120.699 36.1111 119.505 36.7077 118.473L34.1719 116.302C32.9651 117.89 32.2464 119.857 32.1515 121.988V121.974Z" fill="#2B2B2B"/>
<path d="M34.7279 115.664L37.1688 117.754C37.779 116.926 38.5248 116.221 39.3927 115.664V112.693C37.562 113.222 35.9619 114.28 34.7144 115.664H34.7279Z" fill="#2B2B2B"/>
<path d="M34.7415 129.139C35.989 130.523 37.5756 131.581 39.4198 132.11V129.125C38.5519 128.582 37.7926 127.863 37.1959 127.049L34.755 129.139H34.7415Z" fill="#2B2B2B"/>
<path d="M184.284 120.387L176.813 120.156V124.403L184.284 124.172V120.387Z" fill="#D1D1D1"/>
<defs>
<radialGradient id="paint0_radial_381_1138" cx="0" cy="0" r="1" gradientUnits="userSpaceOnUse" gradientTransform="translate(-2.71207 122.408) scale(122.327 122.408)">
<stop stop-color="#2B017F" stop-opacity="0"/>
<stop offset="0.96" stop-color="#03000B" stop-opacity="0.91"/>
<stop offset="1"/>
</radialGradient>
</defs>
</svg>
