<svg width="245" height="245" viewBox="0 0 245 245" fill="none" xmlns="http://www.w3.org/2000/svg">
<path style="mix-blend-mode:soft-light" d="M217.521 0H27.1206C12.1423 0 0 12.1503 0 27.1385V217.665C0 232.653 12.1423 244.803 27.1206 244.803H217.521C232.499 244.803 244.641 232.653 244.641 217.665V27.1385C244.641 12.1503 232.499 0 217.521 0Z" fill="url(#paint0_radial_381_1635)"/>
<path d="M132.552 59.2163H127.074V65.7567H132.552V59.2163Z" fill="#0F3E51"/>
<path d="M44.9413 126.674L42.8619 134.264L52.1341 136.808L54.2135 129.217L44.9413 126.674Z" fill="white"/>
<path d="M40.5995 134.376L42.8912 134.282L44.9659 126.696L43.0404 125.448L40.5995 134.376Z" fill="#9D9D9C"/>
<path d="M53.8852 130.188L52.3616 135.75L61.6337 138.294L63.1574 132.732L53.8852 130.188Z" fill="white"/>
<path d="M62.9688 133.622L61.9076 137.495L69.3227 139.529L70.3839 135.656L62.9688 133.622Z" fill="white"/>
<path d="M70.2026 136.677L69.6646 138.64L71.9792 139.275L72.5173 137.312L70.2026 136.677Z" fill="white"/>
<path d="M53.0834 128.882L51.0054 136.473L52.104 136.774L54.182 129.183L53.0834 128.882Z" fill="#9D9D9C"/>
<path d="M62.205 132.512L60.6794 138.073L61.6863 138.35L63.2119 132.789L62.205 132.512Z" fill="#9D9D9C"/>
<path d="M69.2638 135.33L68.204 139.204L69.3026 139.505L70.3624 135.631L69.2638 135.33Z" fill="#9D9D9C"/>
<path d="M53.8751 138.352C53.8751 139.804 55.0413 140.971 56.4922 140.971C57.9432 140.971 59.1094 139.804 59.1094 138.352C59.1094 136.9 57.9296 135.733 56.4922 135.733C55.0549 135.733 53.8751 136.914 53.8751 138.352Z" fill="#9D9D9C"/>
<path d="M56.5058 139.926C57.3736 139.926 58.0787 139.221 58.0787 138.352C58.0787 137.484 57.3736 136.778 56.5058 136.778C55.6379 136.778 54.9327 137.484 54.9327 138.352C54.9327 139.221 55.6379 139.926 56.5058 139.926Z" fill="white"/>
<path d="M57.2922 140.985H55.7192V144.662H57.2922V140.985Z" fill="#9D9D9C"/>
<path d="M59.9365 144.648H52.953V146.399H59.9365V144.648Z" fill="white"/>
<path d="M56.8854 145.883H56.004V172.275H56.8854V145.883Z" fill="white"/>
<path d="M49.7663 172.126L53.9835 146.209L53.1158 146.019L48.8984 171.936L49.7663 172.126Z" fill="white"/>
<path d="M63.1232 172.126L58.9059 146.209L59.7738 146.019L63.991 171.936L63.1232 172.126Z" fill="white"/>
<path d="M211.446 137.402H97.0782V217.773H211.446V137.402Z" fill="white"/>
<path d="M97.0782 171.977H17.9674V214.286H97.0782V171.977Z" fill="white"/>
<path opacity="0.1" d="M97.0782 171.977H85.9316V214.286H97.0782V171.977Z" fill="#383838"/>
<path d="M94.1628 174.881H20.8829V211.369H94.1628V174.881Z" stroke="#9D9D9C" stroke-width="1.29" stroke-miterlimit="10"/>
<path d="M211.446 137.402H97.0782V114.253C97.0782 82.6504 122.68 57.0316 154.262 57.0316C185.844 57.0316 211.446 82.6504 211.446 114.253V137.402Z" fill="white"/>
<g opacity="0.1">
<path d="M161.544 137.402V114.253C161.544 95.4191 152.391 77.5348 137.04 66.4487L130.911 62.0116C128.918 62.9072 126.979 63.8977 125.121 65.0104L133.637 71.1709C147.468 81.1714 155.726 97.2781 155.726 114.253V137.402H161.544Z" fill="#383838"/>
</g>
<path d="M161.544 140.306V114.24C161.544 95.4055 152.391 77.5213 137.04 66.4352L127.06 59.2163L138.966 56.0818C143.943 54.7792 149.082 54.1143 154.248 54.1143C158.601 54.1143 162.954 54.5892 167.199 55.5255L168.338 55.7833L169.287 56.4482C188.122 69.6918 199.364 91.3076 199.364 114.253V140.32H161.53L161.544 140.306Z" fill="white"/>
<path d="M165.951 61.211C162.181 60.3833 158.276 59.9355 154.262 59.9355C149.489 59.9355 144.865 60.5597 140.458 61.7131C156.744 73.4912 167.375 92.6374 167.375 114.24V134.471H193.573V114.24C193.573 92.3253 182.644 72.9348 165.965 61.1974L165.951 61.211Z" fill="#008CDA"/>
<path d="M165.951 61.211C164.663 60.926 163.347 60.6953 162.032 60.5054C184.135 79.4616 188.109 92.8274 188.109 114.253V134.485H193.573V114.253C193.573 92.3389 182.644 72.9484 165.965 61.211H165.951Z" fill="#0079AF"/>
<path opacity="0.1" d="M211.446 137.402H188.041V217.773H211.446V137.402Z" fill="#383838"/>
<path d="M193.573 109.992H167.375V112.055H193.573V109.992Z" fill="#9D9D9C"/>
<path d="M216.558 129.532H91.9659V137.389H216.558V129.532Z" fill="white"/>
<path d="M216.558 117.741H91.9659V125.597H216.558V117.741Z" fill="white"/>
<path d="M216.558 125.597H91.9659V129.532H216.558V125.597Z" fill="#9D9D9C"/>
<path opacity="0.1" d="M211.446 137.402H97.0782V141.338H211.446V137.402Z" fill="#383838"/>
<path d="M230.918 217.773H11.0652V229.714H230.918V217.773Z" fill="white"/>
<path d="M225.874 244.817H18.8217C10.7804 244.817 4.25793 238.059 4.25793 229.728H240.438C240.438 238.059 233.915 244.817 225.874 244.817Z" fill="white"/>
<path d="M224.233 202.277H96.8748V203.715H224.233V202.277Z" fill="#9D9D9C"/>
<path d="M98.2444 202.277H96.8748V217.773H98.2444V202.277Z" fill="#9D9D9C"/>
<path d="M109.703 202.277H108.333V217.773H109.703V202.277Z" fill="#9D9D9C"/>
<path d="M121.148 202.277H119.778V217.773H121.148V202.277Z" fill="#9D9D9C"/>
<path d="M132.606 202.277H131.237V217.773H132.606V202.277Z" fill="#9D9D9C"/>
<path d="M144.065 202.277H142.695V217.773H144.065V202.277Z" fill="#9D9D9C"/>
<path d="M155.51 202.277H154.14V217.773H155.51V202.277Z" fill="#9D9D9C"/>
<path d="M166.968 202.277H165.598V217.773H166.968V202.277Z" fill="#9D9D9C"/>
<path d="M178.426 202.277H177.057V217.773H178.426V202.277Z" fill="#9D9D9C"/>
<path d="M189.871 202.277H188.502V217.773H189.871V202.277Z" fill="#9D9D9C"/>
<path d="M201.33 202.277H199.96V217.773H201.33V202.277Z" fill="#9D9D9C"/>
<path d="M212.788 202.277H211.419V217.773H212.788V202.277Z" fill="#9D9D9C"/>
<path d="M224.233 202.277H222.864V217.773H224.233V202.277Z" fill="#9D9D9C"/>
<mask id="mask0_381_1635" style="mask-type:luminance" maskUnits="userSpaceOnUse" x="140" y="59" width="54" height="76">
<path d="M165.951 61.211C162.181 60.3833 158.276 59.9355 154.262 59.9355C149.489 59.9355 144.865 60.5597 140.458 61.7131C156.744 73.4912 167.375 92.6374 167.375 114.24V134.471H193.573V114.24C193.573 92.3253 182.644 72.9348 165.965 61.1974L165.951 61.211Z" fill="white"/>
</mask>
<g mask="url(#mask0_381_1635)">
<path d="M170.192 74.3507L139.03 105.534L151.514 118.027L182.677 86.8433L170.192 74.3507Z" fill="#0079AF"/>
</g>
<path d="M182.671 74.3732C186.115 77.8197 186.115 83.4103 182.671 86.8705C179.226 90.3171 173.64 90.3171 170.182 86.8705C166.737 83.4239 166.737 77.8333 170.182 74.3732C173.626 70.9266 179.213 70.9266 182.671 74.3732Z" fill="#DDECF5"/>
<path d="M181.288 75.7573C183.973 78.444 183.973 82.7862 181.288 85.4729C178.603 88.1596 174.263 88.1596 171.579 85.4729C168.894 82.7862 168.894 78.444 171.579 75.7573C174.263 73.0706 178.603 73.0706 181.288 75.7573Z" fill="#0079AF"/>
<path d="M180.501 76.5442C182.739 78.7832 182.739 82.4333 180.501 84.6723C178.264 86.9248 174.616 86.9248 172.379 84.6723C170.141 82.4333 170.141 78.7832 172.379 76.5442C174.616 74.3053 178.264 74.3053 180.501 76.5442Z" fill="#008CDA"/>
<path d="M216.558 102.258H91.9659V103.696H216.558V102.258Z" fill="#9D9D9C"/>
<path d="M216.558 116.302H91.9659V117.741H216.558V116.302Z" fill="#9D9D9C"/>
<path d="M93.3084 102.244H91.9659V117.741H93.3084V102.244Z" fill="#9D9D9C"/>
<path d="M104.509 102.244H103.167V117.741H104.509V102.244Z" fill="#9D9D9C"/>
<path d="M115.696 102.244H114.368V117.741H115.696V102.244Z" fill="#9D9D9C"/>
<path d="M126.911 102.244H125.582V117.741H126.911V102.244Z" fill="#9D9D9C"/>
<path d="M138.125 102.244H136.783V117.741H138.125V102.244Z" fill="#9D9D9C"/>
<path d="M149.326 102.244H147.984V117.741H149.326V102.244Z" fill="#9D9D9C"/>
<path d="M160.54 102.244H159.198V117.741H160.54V102.244Z" fill="#9D9D9C"/>
<path d="M171.741 102.244H170.399V117.741H171.741V102.244Z" fill="#9D9D9C"/>
<path d="M182.928 102.244H181.6V117.741H182.928V102.244Z" fill="#9D9D9C"/>
<path d="M194.156 102.244H192.814V117.741H194.156V102.244Z" fill="#9D9D9C"/>
<path d="M205.357 102.244H204.015V117.741H205.357V102.244Z" fill="#9D9D9C"/>
<path d="M216.544 102.244H215.216V117.741H216.544V102.244Z" fill="#9D9D9C"/>
<path d="M97.0782 156.467H17.764V157.906H97.0782V156.467Z" fill="#9D9D9C"/>
<path d="M97.0782 170.511H17.764V171.95H97.0782V170.511Z" fill="#9D9D9C"/>
<path d="M19.0522 156.467H17.7233V171.963H19.0522V156.467Z" fill="#9D9D9C"/>
<path d="M30.1988 156.467H28.8699V171.963H30.1988V156.467Z" fill="#9D9D9C"/>
<path d="M41.3453 156.467H40.0164V171.963H41.3453V156.467Z" fill="#9D9D9C"/>
<path d="M52.4918 156.467H51.163V171.963H52.4918V156.467Z" fill="#9D9D9C"/>
<path d="M63.6385 156.467H62.3096V171.963H63.6385V156.467Z" fill="#9D9D9C"/>
<path d="M74.7851 156.467H73.4562V171.963H74.7851V156.467Z" fill="#9D9D9C"/>
<path d="M85.9315 156.467H84.6027V171.963H85.9315V156.467Z" fill="#9D9D9C"/>
<path d="M97.0782 156.467H95.7493V171.963H97.0782V156.467Z" fill="#9D9D9C"/>
<path d="M193.573 114.24H167.375V116.289H193.573V114.24Z" fill="#9D9D9C"/>
<path d="M117.473 185.94H105.079V163.591C105.079 160.497 107.845 157.987 111.276 157.987C114.707 157.987 117.473 160.497 117.473 163.591V185.94Z" fill="#008CDA"/>
<path d="M139.251 185.94H126.857V163.591C126.857 160.497 129.636 157.987 133.054 157.987C136.471 157.987 139.251 160.497 139.251 163.591V185.94Z" fill="#008CDA"/>
<path d="M161.042 185.94H148.648V163.591C148.648 160.497 151.428 157.987 154.845 157.987C158.262 157.987 161.042 160.497 161.042 163.591V185.94Z" fill="#008CDA"/>
<path d="M182.82 185.94H170.426V163.591C170.426 160.497 173.206 157.987 176.623 157.987C180.04 157.987 182.82 160.497 182.82 163.591V185.94Z" fill="#008CDA"/>
<path d="M204.598 185.94H192.204V163.591C192.204 160.497 194.984 157.987 198.401 157.987C201.818 157.987 204.598 160.497 204.598 163.591V185.94Z" fill="#008CDA"/>
<path d="M97.0782 214.272H17.9674V217.76H97.0782V214.272Z" fill="#9D9D9C"/>
<path d="M38.24 187.283H26.551V198.98H38.24V187.283Z" fill="#008CDA"/>
<path d="M54.648 187.283H42.959V198.98H54.648V187.283Z" fill="#008CDA"/>
<path d="M71.0424 187.283H59.3534V198.98H71.0424V187.283Z" fill="#008CDA"/>
<path d="M87.4369 187.283H75.7479V198.98H87.4369V187.283Z" fill="#008CDA"/>
<defs>
<radialGradient id="paint0_radial_381_1635" cx="0" cy="0" r="1" gradientUnits="userSpaceOnUse" gradientTransform="translate(122.314 -289.731) scale(122.327 122.408)">
<stop stop-color="#2B017F" stop-opacity="0"/>
<stop offset="0.96" stop-color="#03000B" stop-opacity="0.91"/>
<stop offset="1"/>
</radialGradient>
</defs>
</svg>
