<svg width="245" height="246" viewBox="0 0 245 246" fill="none" xmlns="http://www.w3.org/2000/svg">
<path style="mix-blend-mode:soft-light" d="M217.521 0.352844H27.1206C12.1423 0.352844 0 12.5032 0 27.4914V218.017C0 233.006 12.1423 245.156 27.1206 245.156H217.521C232.499 245.156 244.641 233.006 244.641 218.017V27.4914C244.641 12.5032 232.499 0.352844 217.521 0.352844Z" fill="url(#paint0_radial_381_1093)"/>
<mask id="mask0_381_1093" style="mask-type:luminance" maskUnits="userSpaceOnUse" x="0" y="0" width="245" height="245">
<path d="M217.521 0H27.1206C12.1423 0 0 12.1503 0 27.1385V217.665C0 232.653 12.1423 244.803 27.1206 244.803H217.521C232.499 244.803 244.641 232.653 244.641 217.665V27.1385C244.641 12.1503 232.499 0 217.521 0Z" fill="white"/>
</mask>
<g mask="url(#mask0_381_1093)">
<path d="M190.235 101.829L119.105 117.621C113.812 118.797 110.473 124.043 111.647 129.34L117.936 157.702C119.111 162.999 124.354 166.341 129.647 165.165L200.777 149.373C206.07 148.197 209.409 142.951 208.235 137.654L201.946 109.292C200.772 103.995 195.528 100.654 190.235 101.829Z" fill="#C18063"/>
<path d="M187.358 11.4108L84.4962 34.2487C74.5893 36.4483 68.3401 46.2678 70.5382 56.1812L88.0974 135.372C90.2955 145.286 100.109 151.539 110.015 149.34L212.877 126.502C222.784 124.302 229.033 114.483 226.835 104.569L209.276 25.378C207.078 15.4646 197.265 9.21126 187.358 11.4108Z" fill="#EABB9D"/>
<mask id="mask1_381_1093" style="mask-type:luminance" maskUnits="userSpaceOnUse" x="70" y="10" width="158" height="140">
<path d="M187.358 11.4108L84.4962 34.2487C74.5893 36.4483 68.3401 46.2678 70.5382 56.1812L88.0974 135.372C90.2955 145.286 100.109 151.539 110.015 149.34L212.877 126.502C222.784 124.302 229.033 114.483 226.835 104.569L209.276 25.378C207.078 15.4646 197.265 9.21126 187.358 11.4108Z" fill="white"/>
</mask>
<g mask="url(#mask1_381_1093)">
<path d="M110.557 81.0085C110.557 81.0085 131.982 103.045 175.023 113.805C175.023 113.805 181.45 129.6 148.675 143.821L233.847 126.072L223.582 77.0192L110.571 81.0085H110.557Z" fill="#DBA182"/>
</g>
<path d="M85.5249 123.901C85.5249 123.901 90.8948 123.684 96.4816 118.745C96.4816 118.745 94.4204 124.634 85.9995 126.072L85.5249 123.901Z" fill="white"/>
<path d="M87.2081 80.8988L85.368 81.3074C83.5182 81.7181 82.3513 83.5515 82.7618 85.4025L84.0542 91.2313C84.4646 93.0823 86.2969 94.2499 88.1466 93.8392L89.9868 93.4306C91.8365 93.0199 93.0033 91.1865 92.5929 89.3355L91.3005 83.5067C90.8901 81.6557 89.0578 80.4881 87.2081 80.8988Z" fill="black"/>
<path d="M88.2319 82.6258L87.9671 82.6845C87.2506 82.8435 86.7985 83.5536 86.9574 84.2706L87.2831 85.7411C87.442 86.4581 88.1516 86.9105 88.8682 86.7516L89.133 86.6928C89.8495 86.5339 90.3016 85.8237 90.1427 85.1067L89.8169 83.6363C89.6581 82.9193 88.9485 82.4668 88.2319 82.6258Z" fill="white"/>
<path d="M87.0436 81.1985C89.3489 79.5838 91.0575 79.136 93.7153 78.254C94.6645 81.9177 89.1862 84.1023 87.0436 81.1985Z" fill="black"/>
<path d="M223.881 91.389C223.881 91.389 253.822 75.8251 209.873 7.76162C165.924 -60.3018 81.9178 -5.91619 74.1206 20.1097C74.1206 20.1097 47.6916 30.1509 70.5272 56.231C93.3627 82.3112 180.42 110.087 223.881 91.3755V91.389Z" fill="#91472A"/>
<path d="M203.465 135.527L119.64 154.138C93.9039 159.852 77.6699 185.361 83.3801 211.114L100.305 287.444C106.015 313.197 131.507 329.442 157.243 323.728L241.068 305.116C266.804 299.402 283.038 273.893 277.328 248.14L260.403 171.811C254.693 146.058 229.201 129.813 203.465 135.527Z" fill="#946682"/>
<path d="M133.745 154.35C133.745 154.35 129.514 155.694 124.619 147.539C123.792 146.155 121.839 146.019 120.809 147.254L96.1154 176.889L101.078 191.924L116.51 202.426L132.85 201.476L141.556 183.633L133.732 154.364L133.745 154.35Z" fill="#C18063"/>
<path d="M187.783 110.277L199.906 97.8073C200.448 96.5725 196.814 87.6574 196.638 87.2368C196.326 86.4769 195.743 85.8256 194.916 85.4592L140.01 60.4511C138.654 59.8405 137.176 59.759 135.82 60.1526C140.593 85.405 161.707 110.725 187.783 110.277Z" fill="#C6C6C6"/>
<path d="M118.802 181.19L187.797 110.277C161.72 110.725 140.607 85.4049 135.834 60.1525C134.708 60.4782 133.664 61.1431 132.864 62.0929L56.3566 154.215C55.3396 155.436 55.0277 156.942 55.2854 158.34C55.3532 158.665 57.0347 166.061 59.0009 169.059L115.086 182.195C116.402 182.669 117.88 182.262 118.788 181.204L118.802 181.19Z" fill="#B5B5B5"/>
<path d="M56.3566 154.215C55.3396 155.436 55.0277 156.942 55.2854 158.34C55.3532 158.665 57.0347 166.061 59.0009 169.06L61.0892 169.548L59.3535 163.252L56.3431 154.215H56.3566Z" fill="#9D9D9C"/>
<path d="M132.864 62.0929C129.325 66.4894 125.745 70.8587 122.192 75.2551L111.452 88.363C107.886 92.7324 104.265 97.0745 100.672 101.43L89.8777 114.484L79.0294 127.497C75.4088 131.825 71.8018 136.181 68.1676 140.496L57.2516 153.455L56.56 154.255C56.3295 154.513 56.1396 154.785 55.9634 155.083C55.6244 155.68 55.4209 156.345 55.3667 157.024C55.3396 157.363 55.3396 157.716 55.3803 158.055C55.421 158.394 55.5159 158.733 55.5837 159.072C55.7464 159.765 55.9091 160.443 56.0854 161.121C56.438 162.478 56.8312 163.835 57.2923 165.179C57.7533 166.508 58.2551 167.838 58.9873 169.046C58.2144 167.852 57.672 166.549 57.1702 165.219C56.6821 163.89 56.2617 162.546 55.8685 161.176C55.6786 160.497 55.4888 159.819 55.3125 159.127C55.2311 158.788 55.1362 158.448 55.0819 158.082C55.0277 157.729 55.0142 157.363 55.0413 156.996C55.082 156.264 55.2989 155.558 55.6379 154.907C55.8142 154.581 56.0176 154.283 56.2482 153.998L56.9126 153.17L67.6523 140.062C71.2187 135.693 74.8393 131.35 78.4328 126.995L89.2268 113.941L100.075 100.928C103.696 96.5996 107.303 92.2438 110.937 87.9288L121.853 74.9702C125.514 70.6687 129.148 66.3537 132.823 62.0658L132.864 62.0929Z" fill="#F6F6F6"/>
<path d="M141.448 68.7691L138.383 59.9762C136.335 59.6776 134.233 60.4375 132.864 62.093L135.874 71.1301L141.448 68.7691Z" fill="#B5B5B5"/>
<path d="M199.906 97.8209C200.448 96.5861 196.814 87.6711 196.638 87.2504C196.326 86.4905 195.743 85.8392 194.916 85.4728L197.926 94.51L198.441 99.3135L199.906 97.8073V97.8209Z" fill="#D2B9C9"/>
<path d="M152.309 78.7289L154.262 79.7466L149.353 64.7118L147.089 63.6805L152.309 78.7289Z" fill="#706F6F"/>
<path d="M189.654 96.9524L184.244 80.6014L182.088 79.6108L187.797 96.0568L189.654 96.9524Z" fill="#706F6F"/>
<path d="M143.034 69.5018L197.94 94.5099C199.987 95.4462 200.57 98.0786 199.106 99.8019L121.812 190.241C120.904 191.313 119.426 191.707 118.11 191.232L61.5502 171.176C58.2686 170.009 57.1431 165.939 59.367 163.252L135.874 71.1301C137.624 69.0268 140.552 68.3619 143.034 69.4882V69.5018Z" fill="#9D9D9C"/>
<path d="M107.913 96.5453L98.936 107.469L100.156 109.87L109.052 98.92C108.699 98.1194 108.306 97.3324 107.913 96.5589V96.5453Z" fill="#706F6F"/>
<path d="M112.144 95.107L122.165 82.7861L120.917 80.7236L111.072 92.7188C111.439 93.5194 111.805 94.32 112.157 95.107H112.144Z" fill="#706F6F"/>
<path d="M192.475 88.4852C192.109 89.0008 191.024 88.8787 190.034 88.1866C189.058 87.5082 188.542 86.5312 188.909 86.002C189.275 85.4864 190.36 85.6085 191.349 86.3005C192.326 86.979 192.841 87.956 192.475 88.4852Z" fill="#706F6F"/>
<path d="M196.652 87.2504C196.38 86.6533 195.933 86.1377 195.39 85.7984C195.119 85.622 194.821 85.4999 194.523 85.3778L193.614 84.9979L190.007 83.451C187.607 82.4061 185.207 81.3613 182.806 80.3029C180.406 79.2445 178.02 78.1725 175.633 77.1005L168.473 73.8575L161.327 70.5737C158.954 69.461 156.567 68.3755 154.208 67.2493C149.462 65.0239 144.743 62.7578 140.037 60.451C144.865 62.4729 149.679 64.549 154.465 66.6793C156.866 67.7242 159.252 68.8097 161.639 69.8817L168.799 73.1247L175.945 76.4085C178.318 77.5212 180.705 78.6067 183.064 79.733C185.437 80.8456 187.797 81.9719 190.17 83.0982L193.709 84.8079L194.59 85.2421C194.875 85.3914 195.187 85.5135 195.458 85.717C196.001 86.1105 196.421 86.6533 196.652 87.2639V87.2504Z" fill="#F6F6F6"/>
<path d="M128.193 198.889L168.112 177.506L186.67 212.199C187.598 213.934 186.943 216.101 185.209 217.03L150.886 235.415C149.535 236.139 147.846 235.627 147.123 234.276L128.193 198.889Z" fill="#EABB9D"/>
<path d="M122.328 159.683L142.871 134.594C143.943 133.291 145.678 132.735 147.306 133.182C152.797 134.689 164.771 139.614 168.134 154.378C173.952 179.874 139.644 202.752 139.644 202.752L133.189 205.181L134.681 198.043L138.044 182.222L133.555 170.416L122.328 159.697V159.683Z" fill="#DBA182"/>
<path d="M122.219 161.827C121.148 160.321 122.856 158.421 124.47 159.317C131.399 163.184 141.827 171.041 144.702 184.298C149.109 204.665 127.236 210.459 120.551 209.917C113.879 209.374 102.76 204.028 97.2409 190.472C96.3324 188.246 95.6273 185.858 95.6273 183.253L99.18 184.515C101.323 187.432 102.746 190.363 108.442 194.868C115.954 200.812 124.918 198.871 129.609 193.633C136.023 186.455 130.22 173.117 122.233 161.814L122.219 161.827Z" fill="#EABB9D"/>
<path d="M153.286 187.351C153.286 187.351 165.11 184.474 183.105 218.112L184.963 217.122C186.847 216.118 187.553 213.77 186.549 211.898L160.418 163.062L153.299 187.351H153.286Z" fill="#DBA182"/>
<path d="M153.272 187.351C153.272 187.351 165.097 184.474 183.091 218.112L184.949 217.122C186.834 216.118 187.539 213.77 186.535 211.898L160.405 163.062L153.286 187.351H153.272Z" fill="#DBA182"/>
<path d="M176.677 190.206L136.279 213.545C131.227 216.464 129.496 222.929 132.413 227.985L160.388 276.471C163.305 281.527 169.765 283.259 174.818 280.34L215.216 257.001C220.268 254.082 221.999 247.617 219.082 242.561L191.107 194.075C188.19 189.019 181.73 187.287 176.677 190.206Z" fill="#7C506C"/>
</g>
<defs>
<radialGradient id="paint0_radial_381_1093" cx="0" cy="0" r="1" gradientUnits="userSpaceOnUse" gradientTransform="translate(122.327 -289.378) scale(0.678015 0.678463)">
<stop stop-color="#2B017F" stop-opacity="0"/>
<stop offset="0.96" stop-color="#03000B" stop-opacity="0.91"/>
<stop offset="1"/>
</radialGradient>
</defs>
</svg>
