<svg width="245" height="245" viewBox="0 0 245 245" fill="none" xmlns="http://www.w3.org/2000/svg">
<path style="mix-blend-mode:soft-light" d="M217.521 0H27.1206C12.1423 0 0 12.1503 0 27.1385V217.665C0 232.653 12.1423 244.803 27.1206 244.803H217.521C232.499 244.803 244.641 232.653 244.641 217.665V27.1385C244.641 12.1503 232.499 0 217.521 0Z" fill="url(#paint0_radial_381_1405)"/>
<path d="M71.2322 182.439L82.4873 185.356L84.3993 188.626L70.7712 203.39L59.1636 200.771L71.2322 182.439Z" fill="#1D1D1B"/>
<path d="M58.0109 177.147L48.4509 190.865L59.1636 200.771L72.7917 186.008L62.6621 173.524L58.0109 177.147Z" fill="#3C3C3B"/>
<path d="M44.9252 179.508L58.5398 164.731L63.8418 167.608L62.079 176.102L48.4509 190.865L44.9252 179.508Z" fill="#706F6F"/>
<path d="M62.079 176.102L58.5397 164.731L64.2351 158.543L75.8698 161.162L86.5689 171.054L90.1081 182.439L84.3992 188.626L72.7916 186.008L62.079 176.102Z" fill="#575756"/>
<path d="M64.5063 184.203L51.4478 167.77L46.2406 151.04L50.2816 138.474L62.4723 133.44L79.5582 137.294L96.9697 149.018L110.015 165.423L115.222 182.167L111.181 194.746L98.9902 199.78L81.8906 195.927L64.5063 184.203Z" fill="#C6C6C6"/>
<path d="M68.6422 171.678L64.5063 184.203L81.8906 195.927L109.404 202.548L81.416 176.048L68.6422 171.678Z" fill="#B2B2B2"/>
<path d="M42.6335 140.876L51.4477 167.77L64.5063 184.203L71.2593 176.875L52.5055 149.031L42.6335 140.876Z" fill="#DADADA"/>
<path d="M39.9622 107.441L31.2158 104.158L40.0706 76.5985L43.2573 73.1248L47.9085 82.4876L39.9622 107.441Z" fill="#EDEDED"/>
<path d="M176.813 196.524L173.626 199.997L146.885 211.016L145.461 202.806L176.813 196.524Z" fill="#B2B2B2"/>
<path d="M109.554 198.532L109.404 202.548L146.885 211.016L150.072 207.528L111.696 195.682L109.554 198.532Z" fill="#C6C6C6"/>
<path d="M72.6832 169.942L71.2593 176.875L109.404 202.549L112.618 199.075L75.0156 170.851L72.6832 169.942Z" fill="#DADADA"/>
<path d="M43.6641 135.258L42.6335 140.876L71.2593 176.875L74.446 173.402L46.8372 132.911L43.6641 135.258Z" fill="#EDEDED"/>
<path d="M34.4024 100.684L31.2158 104.158L42.6335 140.876L45.8202 137.389L49.251 111.526L34.4024 100.684Z" fill="#F6F6F6"/>
<path d="M74.446 173.402L45.8202 137.389L34.4025 100.684L43.2573 73.1248L69.9983 62.1066L107.465 70.5602L145.651 96.2468L174.263 132.246L185.681 168.965L176.813 196.524L150.072 207.528L112.618 199.075L74.446 173.402Z" fill="white"/>
<path d="M79.3684 168.069L58.4584 141.758L50.1188 114.945L56.5871 94.8085L76.1275 86.7619L103.506 92.9495L131.372 111.689L152.282 138.013L160.635 164.812L154.167 184.949L134.613 193.009L107.248 186.835L79.3684 168.069Z" fill="#F6F6F6"/>
<path d="M83.9518 163.103L70.8932 146.684L65.6996 129.926L69.727 117.361L81.9313 112.34L99.0173 116.207L116.429 127.904L129.487 144.336L134.681 161.081L130.653 173.646L118.449 178.68L101.363 174.813L83.9518 163.103Z" fill="#EDEDED"/>
<path d="M91.5455 147.281L89.064 139.261L93.0779 134.892L101.268 136.751L108.821 143.726L111.316 151.745L107.289 156.114L99.0986 154.269L91.5455 147.281Z" fill="#C6C6C6"/>
<path d="M130.586 121.445L129.718 118.663L127.819 118.243L128.633 125.909L130.003 150.537L130.545 153.631L132.43 154.052L130.586 121.445Z" fill="#706F6F"/>
<path d="M128.687 121.024L127.819 118.243L129.677 150.836L130.545 153.631L128.687 121.024Z" fill="#B2B2B2"/>
<path d="M121.785 112.828L124.633 113.466L125.148 115.746L113.54 115.719L93.5525 116.492L89.9047 116.248L89.3759 113.968L121.785 112.828Z" fill="#B2B2B2"/>
<path d="M122.3 115.108L125.148 115.746L92.7524 116.886L89.9047 116.248L122.3 115.108Z" fill="#706F6F"/>
<path d="M121.771 119.45L120.904 116.669L118.992 116.248L116.768 118.623L72.1407 136.398L68.6693 139.668L70.5678 140.089L121.771 119.45Z" fill="#706F6F"/>
<path d="M119.859 119.03L118.992 116.248L67.815 136.873L68.6693 139.668L119.859 119.03Z" fill="#B2B2B2"/>
<path d="M124.416 121.893L127.25 122.531L127.982 124.864L122.341 138.434L110.95 174.799L108.835 176.482L108.103 174.162L124.416 121.893Z" fill="#B2B2B2"/>
<path d="M125.134 124.213L127.982 124.864L111.669 177.12L108.835 176.482L125.134 124.213Z" fill="#706F6F"/>
<path d="M125.69 120.156L130.382 121.364L131.169 122.734L128.999 125.082L124.158 123.996L125.69 120.156Z" fill="#706F6F"/>
<path d="M120.185 117.944L119.697 119.885L124.158 123.996L126.341 121.649L122.124 116.438L120.185 117.944Z" fill="#878787"/>
<path d="M118.232 115.135L120.415 112.788L122.612 113.982L121.893 117.523L119.697 119.884L118.232 115.135Z" fill="#B2B2B2"/>
<path d="M121.893 117.523L120.415 112.788L122.775 110.21L127.616 111.295L132.077 115.42L133.555 120.142L131.169 122.734L126.341 121.649L121.893 117.523Z" fill="#9D9D9C"/>
<path d="M141.054 102.584L143.834 103.303L144.309 104.117L129.474 120.197L126.585 119.545L141.054 102.584Z" fill="#706F6F"/>
<path d="M137.773 101.267L123.955 117.103L126.585 119.545L141.434 103.466L138.925 100.372L137.773 101.267Z" fill="#878787"/>
<path d="M123.073 114.28L137.908 98.1872L139.224 98.9064L138.776 101.023L123.955 117.103L123.073 114.28Z" fill="#B2B2B2"/>
<path d="M138.776 101.023L137.908 98.1872L139.318 96.6675L142.193 97.3188L144.851 99.7613L145.719 102.597L144.309 104.117L141.434 103.466L138.776 101.023Z" fill="#9D9D9C"/>
<path d="M146.478 99.517L155.225 101.77L156.716 104.307L152.648 108.717L143.617 106.668L146.478 99.517Z" fill="#706F6F"/>
<path d="M136.2 95.4055L135.305 99.0014L143.617 106.668L147.685 102.272L139.807 92.5831L136.2 95.4055Z" fill="#878787"/>
<path d="M132.552 90.1407L136.62 85.7442L140.729 87.9967L139.359 94.5914L135.305 99.0014L132.552 90.1407Z" fill="#B2B2B2"/>
<path d="M139.359 94.5914L136.62 85.7442L141.054 80.9407L150.072 82.9761L158.398 90.6699L161.151 99.5035L156.716 104.307L147.685 102.272L139.359 94.5914Z" fill="#9D9D9C"/>
<path d="M180.827 90.2899C180.827 90.2899 182.576 79.5566 171.931 69.4204C161.273 59.2841 150.167 61.1024 150.167 61.1024" stroke="#FFDC00" stroke-width="3" stroke-miterlimit="10" stroke-linecap="round"/>
<path d="M195.458 87.956C195.458 87.956 197.926 72.8399 182.915 58.5514C167.904 44.263 152.241 46.8411 152.241 46.8411" stroke="#FFDC00" stroke-width="3" stroke-miterlimit="10" stroke-linecap="round"/>
<path d="M209.656 84.0616C209.656 84.0616 212.707 65.4174 194.183 47.791C175.66 30.1645 156.35 33.3397 156.35 33.3397" stroke="#FFDC00" stroke-width="3" stroke-miterlimit="10" stroke-linecap="round"/>
<defs>
<radialGradient id="paint0_radial_381_1405" cx="0" cy="0" r="1" gradientUnits="userSpaceOnUse" gradientTransform="translate(122.314 122.408) scale(122.327 122.408)">
<stop stop-color="#2B017F" stop-opacity="0"/>
<stop offset="0.96" stop-color="#03000B" stop-opacity="0.91"/>
<stop offset="1"/>
</radialGradient>
</defs>
</svg>
