<svg xmlns="http://www.w3.org/2000/svg" xmlns:xlink="http://www.w3.org/1999/xlink" viewBox="0 0 646.5 770.3"><defs><style>.a{clip-path:url(#a);}.b,.bc,.bj,.bm,.bo,.bv,.bw,.cb,.cc,.cd,.ce,.s{fill:none;}.b{clip-path:url(#ag);}.c{fill:url(#b);}.d{fill:url(#d);}.e{fill:url(#f);}.f{fill:url(#h);}.g{fill:url(#j);}.h{fill:url(#l);}.i{fill:url(#n);}.j{fill:url(#p);}.k{fill:url(#r);}.l{fill:url(#t);}.m{fill:url(#v);}.n{fill:url(#x);}.o{fill:url(#z);}.p{fill:url(#ab);}.q{fill:url(#ad);}.r{fill:url(#af);}.t{clip-path:url(#bm);}.u{mask:url(#bn);}.v{fill:url(#bp);}.w{mask:url(#br);}.x{fill:url(#bt);}.y{mask:url(#bv);}.z{fill:url(#bx);}.aa{mask:url(#bz);}.ab{fill:url(#cb);}.ac{mask:url(#cd);}.ad{fill:url(#cf);}.ae{mask:url(#ch);}.af{fill:url(#cj);}.ag{mask:url(#cl);}.ah{fill:url(#cn);}.ai{mask:url(#cp);}.aj{fill:url(#cr);}.ak{mask:url(#ct);}.al{fill:url(#cv);}.am{mask:url(#cx);}.an{fill:url(#cz);}.ao{mask:url(#db);}.ap{fill:url(#dd);}.aq{mask:url(#df);}.ar{fill:url(#dh);}.as{mask:url(#dj);}.at{fill:url(#dl);}.au{mask:url(#dn);}.av{fill:url(#dp);}.aw{mask:url(#dr);}.ax{fill:url(#dt);}.ay{mask:url(#dv);}.az{fill:url(#dx);}.ba{fill:#7fa7b5;}.bb{opacity:0.5;}.bc,.bv,.cb,.ce{stroke:#fff;}.bc,.bj,.bk,.bm,.bo,.bv,.bw,.cb,.cc,.cd,.ce{stroke-miterlimit:10;}.bc{stroke-width:8.21px;}.bd{fill:#fff;}.be{fill:#ff9f8f;}.bf{fill:#fd7d91;}.bg{fill:#ffae9e;}.bh,.bi{opacity:0.8;}.bh,.bi,.br{isolation:isolate;}.bh{fill:url(#dy);}.bi{fill:url(#dz);}.bj{stroke:#0a0505;}.bj,.bm,.cb{stroke-width:0.69px;}.bk{fill:#fff4f4;}.bk,.cc,.cd{stroke:#0c0c0c;}.bk,.cc{stroke-width:0.85px;}.bl{fill:#044784;}.bm,.bo{stroke:#b5232e;}.bn{fill:#0c0c0c;}.bo,.bw{stroke-width:0.63px;}.bp{fill:#353d9c;}.bq{fill:#fccbc3;}.br{font-size:7.55px;font-family:MyriadPro-Regular, Myriad Pro;}.bs{letter-spacing:-0.01em;}.bt{letter-spacing:-0.01em;}.bu{fill:#5dadff;}.bv{stroke-width:0.64px;}.bw{stroke:#fc8d7e;}.bx{fill:#ffd974;}.by{fill:#fde19f;}.bz{fill:#c98000;}.ca{fill:#ff9693;}.cd{stroke-width:4.01px;}.ce{stroke-width:0.73px;}.cf{fill:#98d3f4;}</style><clipPath id="a"><polygon class="b" points="-1 -1 -2 -1 -1 -2 -1 -1"/></clipPath><radialGradient id="b" cx="1597.99" cy="6319.27" r="195.71" gradientTransform="matrix(0.01, -1.38, -0.09, 0, 1494.66, 2645.97)" gradientUnits="userSpaceOnUse"><stop offset="0" stop-color="#fff"/><stop offset="0.02" stop-color="#f6f6f6"/><stop offset="0.18" stop-color="#b6b6b6"/><stop offset="0.34" stop-color="#7e7e7e"/><stop offset="0.49" stop-color="#515151"/><stop offset="0.63" stop-color="#2e2e2e"/><stop offset="0.76" stop-color="#151515"/><stop offset="0.89" stop-color="#050505"/><stop offset="0.98"/></radialGradient><radialGradient id="d" cx="1497.72" cy="6205.95" r="128.47" gradientTransform="matrix(0.89, -1.05, -0.06, -0.06, 5.89, 2356.02)" xlink:href="#b"/><radialGradient id="f" cx="313.63" cy="-8237.1" r="195.67" gradientTransform="matrix(-1.29, -0.48, -0.02, 0.05, 1179.63, 1046.39)" xlink:href="#b"/><radialGradient id="h" cx="2438" cy="15212.97" r="128.43" gradientTransform="matrix(0.67, 1.2, 0.08, -0.04, -1876.02, -1819.77)" xlink:href="#b"/><radialGradient id="j" cx="2240.15" cy="-11431.9" r="267.49" gradientTransform="matrix(1.03, -0.91, -0.06, -0.07, -2045.12, 1708.53)" xlink:href="#b"/><radialGradient id="l" cx="2730.96" cy="-1309.54" r="175.15" gradientTransform="matrix(1.37, -0.03, 0, -0.09, -2814.79, 400.75)" xlink:href="#b"/><radialGradient id="n" cx="613.37" cy="-17404.17" r="267.21" gradientTransform="matrix(-0.91, -1.03, -0.04, 0.04, 739.46, 1748.58)" xlink:href="#b"/><radialGradient id="p" cx="1958.56" cy="16792.9" r="175.47" gradientTransform="matrix(0.03, 1.37, 0.09, 0, -597.2, -2222.03)" xlink:href="#b"/><radialGradient id="r" cx="1765.61" cy="-2269.41" r="195.85" gradientTransform="matrix(-1.38, -0.01, 0, 0.06, 3371.59, 589.63)" xlink:href="#b"/><radialGradient id="t" cx="1493.34" cy="-2328.12" r="128.42" gradientTransform="matrix(1.05, 0.89, 0.06, -0.07, -486.3, -1044.11)" xlink:href="#b"/><radialGradient id="v" cx="1329.82" cy="6440.86" r="267.37" gradientTransform="matrix(0.66, -1.21, -0.08, -0.04, 574.25, 2325.26)" xlink:href="#b"/><radialGradient id="x" cx="1287.27" cy="3497.94" r="175.32" gradientTransform="matrix(1.28, -0.5, -0.03, -0.08, -599.93, 1364.02)" xlink:href="#b"/><radialGradient id="z" cx="1772.97" cy="4062.99" r="267.44" gradientTransform="matrix(-1.21, -0.66, -0.03, 0.05, 3201.13, 1400.65)" xlink:href="#b"/><radialGradient id="ab" cx="1660.33" cy="-5595.21" r="175.4" gradientTransform="matrix(0.5, 1.28, 0.08, -0.03, 574.76, -1863.51)" xlink:href="#b"/><radialGradient id="ad" cx="1850.91" cy="-16063.35" r="195.71" gradientTransform="matrix(0.48, -1.29, -0.08, -0.03, -1292.2, 2327.5)" xlink:href="#b"/><radialGradient id="af" cx="2629.35" cy="-9036.47" r="128.36" gradientTransform="matrix(1.2, -0.67, -0.04, -0.07, -2589.1, 1540.95)" xlink:href="#b"/><clipPath id="ag"><polygon class="s" points="1 1 2 1 1 2 1 1"/></clipPath><clipPath id="bm" transform="translate(-622.3 -120.4)"><polygon class="b" points="-1 -1 -2 -1 -1 -2 -1 -1"/></clipPath><mask id="bn" x="-624.31" y="-122.39" width="960.55" height="717.4" maskUnits="userSpaceOnUse"><g transform="translate(-622.3 -120.4)"><g class="a"><path class="c" d="M942.3,177c9.6,0,16.9,120.6,16.2,269.3s-9,269.1-18.7,269.1-16.9-120.6-16.2-269.3S932.6,177,942.3,177Z"/></g></g></mask><radialGradient id="bp" cx="1597.99" cy="6319.27" r="195.71" gradientTransform="matrix(0.01, -1.38, -0.09, 0, 1494.66, 2645.97)" gradientUnits="userSpaceOnUse"><stop offset="0" stop-color="#fff"/><stop offset="1" stop-color="#fff" stop-opacity="0"/></radialGradient><mask id="br" x="-624.31" y="-122.39" width="1058.01" height="582.6" maskUnits="userSpaceOnUse"><g transform="translate(-622.3 -120.4)"><g class="a"><path class="d" d="M1055.7,312c4.6,3.9-43,67.2-106.3,141.3S831,584.4,826.4,580.4s43-67.2,106.3-141.3S1051.1,308,1055.7,312Z"/></g></g></mask><radialGradient id="bt" cx="1497.72" cy="6205.95" r="128.47" gradientTransform="matrix(0.89, -1.05, -0.06, -0.06, 5.89, 2356.02)" xlink:href="#bp"/><mask id="bv" x="-624.31" y="-122.39" width="1215.7" height="459.67" maskUnits="userSpaceOnUse"><g transform="translate(-622.3 -120.4)"><g class="a"><path class="k" d="M675.4,445c0-6.3,120.6-10.9,269.2-10.2s269.2,6.3,269.1,12.6-120.6,10.9-269.2,10.2S675.4,451.3,675.4,445Z"/></g></g></mask><radialGradient id="bx" cx="1765.61" cy="-2269.41" r="195.85" gradientTransform="matrix(-1.38, -0.01, 0, 0.06, 3371.59, 589.63)" xlink:href="#bp"/><mask id="bz" x="-624.31" y="-122.39" width="1077.51" height="563.13" maskUnits="userSpaceOnUse"><g transform="translate(-622.3 -120.4)"><g class="a"><path class="l" d="M1075.3,560.8c-4.1,4.8-67.5-42.7-141.6-106S802.8,336.3,806.9,331.5s67.5,42.7,141.6,106S1079.4,556,1075.3,560.8Z"/></g></g></mask><radialGradient id="cb" cx="1493.34" cy="-2328.12" r="128.42" gradientTransform="matrix(1.05, 0.89, 0.06, -0.07, -486.3, -1044.11)" xlink:href="#bp"/><mask id="cd" x="-624.31" y="-122.39" width="1119.87" height="769.21" maskUnits="userSpaceOnUse"><g transform="translate(-622.3 -120.4)"><g class="a"><path class="m" d="M1116.6,120.6c11.6,6.3-57.5,156.1-154.4,334.6S777.5,773.3,765.9,767s57.5-156.1,154.4-334.6S1105,114.3,1116.6,120.6Z"/></g></g></mask><radialGradient id="cf" cx="1329.82" cy="6440.86" r="267.37" gradientTransform="matrix(0.66, -1.21, -0.08, -0.04, 574.25, 2325.26)" xlink:href="#bp"/><mask id="ch" x="-624.31" y="-122.39" width="1167.97" height="534.52" maskUnits="userSpaceOnUse"><g transform="translate(-622.3 -120.4)"><g class="a"><path class="n" d="M1165.9,356.3c3,7.7-95.2,53.1-219.2,101.5s-227.1,81.3-230.1,73.6,95.2-53.1,219.2-101.5S1162.9,348.6,1165.9,356.3Z"/></g></g></mask><radialGradient id="cj" cx="1287.27" cy="3497.94" r="175.32" gradientTransform="matrix(1.28, -0.5, -0.03, -0.08, -599.93, 1364.02)" xlink:href="#bp"/><mask id="cl" x="-624.31" y="-122.39" width="1270.79" height="624.05" maskUnits="userSpaceOnUse"><g transform="translate(-622.3 -120.4)"><g class="a"><path class="o" d="M622.4,270.8c4.1-7.6,152.1,64.8,330.6,161.7s319.8,181.5,315.7,189-152.1-64.8-330.6-161.6S618.3,278.4,622.4,270.8Z"/></g></g></mask><radialGradient id="cn" cx="1772.97" cy="4062.99" r="267.44" gradientTransform="matrix(-1.21, -0.66, -0.03, 0.05, 3201.13, 1400.65)" xlink:href="#bp"/><mask id="cp" x="-624.31" y="-122.39" width="1032" height="670.57" maskUnits="userSpaceOnUse"><g transform="translate(-622.3 -120.4)"><g class="a"><path class="p" d="M1028.8,668.5c-8,3.1-53.7-94.9-102-219s-81-227.2-73-230.3,53.7,94.9,102,219S1036.8,665.4,1028.8,668.5Z"/></g></g></mask><radialGradient id="cr" cx="1660.33" cy="-5595.21" r="175.4" gradientTransform="matrix(0.5, 1.28, 0.08, -0.03, 574.76, -1863.51)" xlink:href="#bp"/><mask id="ct" x="-624.31" y="-122.39" width="1038.02" height="698.77" maskUnits="userSpaceOnUse"><g transform="translate(-622.3 -120.4)"><g class="a"><path class="q" d="M1034.6,192.3c9,3.4-25.8,119-77.8,258.3S855.3,700,846.3,696.7s25.8-119,77.8-258.3S1025.6,188.9,1034.6,192.3Z"/></g></g></mask><radialGradient id="cv" cx="1850.91" cy="-16063.35" r="195.71" gradientTransform="matrix(0.48, -1.29, -0.08, -0.03, -1292.2, 2327.5)" xlink:href="#bp"/><mask id="cx" x="-624.31" y="-122.39" width="1096.5" height="533.34" maskUnits="userSpaceOnUse"><g transform="translate(-622.3 -120.4)"><g class="a"><path class="r" d="M1094.4,358.1c3,5.3-63.6,48.2-148.6,95.9s-156.3,82.1-159.3,76.8,63.6-48.2,148.6-95.9S1091.5,352.9,1094.4,358.1Z"/></g></g></mask><radialGradient id="cz" cx="2629.35" cy="-9036.47" r="128.36" gradientTransform="matrix(1.2, -0.67, -0.04, -0.07, -2589.1, 1540.95)" xlink:href="#bp"/><mask id="db" x="-624.31" y="-122.39" width="1198.13" height="542.51" maskUnits="userSpaceOnUse"><g transform="translate(-622.3 -120.4)"><g class="a"><path class="e" d="M691.7,351.6c2.2-5.9,116.9,31.5,256.2,83.5s250.4,98.9,248.2,104.8-116.9-31.5-256.2-83.5S689.5,357.5,691.7,351.6Z"/></g></g></mask><radialGradient id="dd" cx="313.63" cy="-8237.1" r="195.67" gradientTransform="matrix(-1.29, -0.48, -0.02, 0.05, 1179.63, 1046.39)" xlink:href="#bp"/><mask id="df" x="-624.31" y="-122.39" width="1029.38" height="600.5" maskUnits="userSpaceOnUse"><g transform="translate(-622.3 -120.4)"><g class="a"><path class="f" d="M1026.8,598.4c-5.5,3.1-48.6-63.4-96.3-148.4s-81.9-156.4-76.4-159.5,48.6,63.4,96.3,148.4S1032.3,595.4,1026.8,598.4Z"/></g></g></mask><radialGradient id="dh" cx="2438" cy="15212.97" r="128.43" gradientTransform="matrix(0.67, 1.2, 0.08, -0.04, -1876.02, -1819.77)" xlink:href="#bp"/><mask id="dj" x="-624.31" y="-122.39" width="1220.16" height="687.67" maskUnits="userSpaceOnUse"><g transform="translate(-622.3 -120.4)"><g class="a"><path class="g" d="M1217.7,199.6c8.7,9.9-107.9,126.6-260.5,260.6S674,694.9,665.3,685,773.2,558.4,925.8,424.4,1209,189.7,1217.7,199.6Z"/></g></g></mask><radialGradient id="dl" cx="2240.15" cy="-11431.9" r="267.49" gradientTransform="matrix(1.03, -0.91, -0.06, -0.07, -2045.12, 1708.53)" xlink:href="#bp"/><mask id="dn" x="-624.31" y="-122.39" width="1184.6" height="459.87" maskUnits="userSpaceOnUse"><g transform="translate(-622.3 -120.4)"><g class="a"><path class="h" d="M1182.6,437.8c.2,8.3-107.7,17-240.8,19.4S700.6,455,700.4,446.8s107.7-17,240.8-19.4S1182.4,429.6,1182.6,437.8Z"/></g></g></mask><radialGradient id="dp" cx="2730.96" cy="-1309.54" r="175.15" gradientTransform="matrix(1.37, -0.03, 0, -0.09, -2814.79, 400.75)" xlink:href="#bp"/><mask id="dr" x="-624.31" y="-122.39" width="1189.78" height="724.4" maskUnits="userSpaceOnUse"><g transform="translate(-622.3 -120.4)"><g class="a"><path class="i" d="M702.1,169.8c6.5-5.7,120.4,113.4,254.4,265.9s237.4,280.8,231,286.5S1067.1,608.8,933.1,456.3,695.6,175.5,702.1,169.8Z"/></g></g></mask><radialGradient id="dt" cx="613.37" cy="-17404.17" r="267.21" gradientTransform="matrix(-0.91, -1.03, -0.04, 0.04, 739.46, 1748.58)" xlink:href="#bp"/><mask id="dv" x="-624.31" y="-122.39" width="959.74" height="685.4" maskUnits="userSpaceOnUse"><g transform="translate(-622.3 -120.4)"><g class="a"><path class="j" d="M946,683.4c-8.6.2-17.6-107.6-20.1-240.8s2.5-241.2,11.1-241.4S954.6,308.8,957.1,442,954.6,683.2,946,683.4Z"/></g></g></mask><radialGradient id="dx" cx="1958.56" cy="16792.9" r="175.47" gradientTransform="matrix(0.03, 1.37, 0.09, 0, -597.2, -2222.03)" xlink:href="#bp"/><radialGradient id="dy" cx="-143.22" cy="27.82" r="16.01" gradientTransform="matrix(-0.9, 0, 0, 0.87, 825.35, 311.16)" gradientUnits="userSpaceOnUse"><stop offset="0" stop-color="#f78b7c"/><stop offset="0.37" stop-color="#f88e7f" stop-opacity="0.63"/><stop offset="0.67" stop-color="#fa9889" stop-opacity="0.33"/><stop offset="0.94" stop-color="#fea999" stop-opacity="0.06"/><stop offset="1" stop-color="#ffae9e" stop-opacity="0"/></radialGradient><radialGradient id="dz" cx="-406.86" cy="-9.07" r="16.03" gradientTransform="matrix(-0.74, 0, 0, 0.76, 604.45, 338.6)" xlink:href="#dy"/></defs><title>quant</title><g class="t"><g class="u"><path class="c" d="M942.3,177c9.6,0,16.9,120.6,16.2,269.3s-9,269.1-18.7,269.1-16.9-120.6-16.2-269.3S932.6,177,942.3,177Z" transform="translate(-622.3 -120.4)"/></g></g><path class="v" d="M942.3,177c9.6,0,16.9,120.6,16.2,269.3s-9,269.1-18.7,269.1-16.9-120.6-16.2-269.3S932.6,177,942.3,177Z" transform="translate(-622.3 -120.4)"/><g class="t"><g class="w"><path class="d" d="M1055.7,312c4.6,3.9-43,67.2-106.3,141.3S831,584.4,826.4,580.4s43-67.2,106.3-141.3S1051.1,308,1055.7,312Z" transform="translate(-622.3 -120.4)"/></g></g><path class="x" d="M1055.7,312c4.6,3.9-43,67.2-106.3,141.3S831,584.4,826.4,580.4s43-67.2,106.3-141.3S1051.1,308,1055.7,312Z" transform="translate(-622.3 -120.4)"/><g class="t"><g class="y"><path class="k" d="M675.4,445c0-6.3,120.6-10.9,269.2-10.2s269.2,6.3,269.1,12.6-120.6,10.9-269.2,10.2S675.4,451.3,675.4,445Z" transform="translate(-622.3 -120.4)"/></g></g><path class="z" d="M675.4,445c0-6.3,120.6-10.9,269.2-10.2s269.2,6.3,269.1,12.6-120.6,10.9-269.2,10.2S675.4,451.3,675.4,445Z" transform="translate(-622.3 -120.4)"/><g class="t"><g class="aa"><path class="l" d="M1075.3,560.8c-4.1,4.8-67.5-42.7-141.6-106S802.8,336.3,806.9,331.5s67.5,42.7,141.6,106S1079.4,556,1075.3,560.8Z" transform="translate(-622.3 -120.4)"/></g></g><path class="ab" d="M1075.3,560.8c-4.1,4.8-67.5-42.7-141.6-106S802.8,336.3,806.9,331.5s67.5,42.7,141.6,106S1079.4,556,1075.3,560.8Z" transform="translate(-622.3 -120.4)"/><g class="t"><g class="ac"><path class="m" d="M1116.6,120.6c11.6,6.3-57.5,156.1-154.4,334.6S777.5,773.3,765.9,767s57.5-156.1,154.4-334.6S1105,114.3,1116.6,120.6Z" transform="translate(-622.3 -120.4)"/></g></g><path class="ad" d="M1116.6,120.6c11.6,6.3-57.5,156.1-154.4,334.6S777.5,773.3,765.9,767s57.5-156.1,154.4-334.6S1105,114.3,1116.6,120.6Z" transform="translate(-622.3 -120.4)"/><g class="t"><g class="ae"><path class="n" d="M1165.9,356.3c3,7.7-95.2,53.1-219.2,101.5s-227.1,81.3-230.1,73.6,95.2-53.1,219.2-101.5S1162.9,348.6,1165.9,356.3Z" transform="translate(-622.3 -120.4)"/></g></g><path class="af" d="M1165.9,356.3c3,7.7-95.2,53.1-219.2,101.5s-227.1,81.3-230.1,73.6,95.2-53.1,219.2-101.5S1162.9,348.6,1165.9,356.3Z" transform="translate(-622.3 -120.4)"/><g class="t"><g class="ag"><path class="o" d="M622.4,270.8c4.1-7.6,152.1,64.8,330.6,161.7s319.8,181.5,315.7,189-152.1-64.8-330.6-161.6S618.3,278.4,622.4,270.8Z" transform="translate(-622.3 -120.4)"/></g></g><path class="ah" d="M622.4,270.8c4.1-7.6,152.1,64.8,330.6,161.7s319.8,181.5,315.7,189-152.1-64.8-330.6-161.6S618.3,278.4,622.4,270.8Z" transform="translate(-622.3 -120.4)"/><g class="t"><g class="ai"><path class="p" d="M1028.8,668.5c-8,3.1-53.7-94.9-102-219s-81-227.2-73-230.3,53.7,94.9,102,219S1036.8,665.4,1028.8,668.5Z" transform="translate(-622.3 -120.4)"/></g></g><path class="aj" d="M1028.8,668.5c-8,3.1-53.7-94.9-102-219s-81-227.2-73-230.3,53.7,94.9,102,219S1036.8,665.4,1028.8,668.5Z" transform="translate(-622.3 -120.4)"/><g class="t"><g class="ak"><path class="q" d="M1034.6,192.3c9,3.4-25.8,119-77.8,258.3S855.3,700,846.3,696.7s25.8-119,77.8-258.3S1025.6,188.9,1034.6,192.3Z" transform="translate(-622.3 -120.4)"/></g></g><path class="al" d="M1034.6,192.3c9,3.4-25.8,119-77.8,258.3S855.3,700,846.3,696.7s25.8-119,77.8-258.3S1025.6,188.9,1034.6,192.3Z" transform="translate(-622.3 -120.4)"/><g class="t"><g class="am"><path class="r" d="M1094.4,358.1c3,5.3-63.6,48.2-148.6,95.9s-156.3,82.1-159.3,76.8,63.6-48.2,148.6-95.9S1091.5,352.9,1094.4,358.1Z" transform="translate(-622.3 -120.4)"/></g></g><path class="an" d="M1094.4,358.1c3,5.3-63.6,48.2-148.6,95.9s-156.3,82.1-159.3,76.8,63.6-48.2,148.6-95.9S1091.5,352.9,1094.4,358.1Z" transform="translate(-622.3 -120.4)"/><g class="t"><g class="ao"><path class="e" d="M691.7,351.6c2.2-5.9,116.9,31.5,256.2,83.5s250.4,98.9,248.2,104.8-116.9-31.5-256.2-83.5S689.5,357.5,691.7,351.6Z" transform="translate(-622.3 -120.4)"/></g></g><path class="ap" d="M691.7,351.6c2.2-5.9,116.9,31.5,256.2,83.5s250.4,98.9,248.2,104.8-116.9-31.5-256.2-83.5S689.5,357.5,691.7,351.6Z" transform="translate(-622.3 -120.4)"/><g class="t"><g class="aq"><path class="f" d="M1026.8,598.4c-5.5,3.1-48.6-63.4-96.3-148.4s-81.9-156.4-76.4-159.5,48.6,63.4,96.3,148.4S1032.3,595.4,1026.8,598.4Z" transform="translate(-622.3 -120.4)"/></g></g><path class="ar" d="M1026.8,598.4c-5.5,3.1-48.6-63.4-96.3-148.4s-81.9-156.4-76.4-159.5,48.6,63.4,96.3,148.4S1032.3,595.4,1026.8,598.4Z" transform="translate(-622.3 -120.4)"/><g class="t"><g class="as"><path class="g" d="M1217.7,199.6c8.7,9.9-107.9,126.6-260.5,260.6S674,694.9,665.3,685,773.2,558.4,925.8,424.4,1209,189.7,1217.7,199.6Z" transform="translate(-622.3 -120.4)"/></g></g><path class="at" d="M1217.7,199.6c8.7,9.9-107.9,126.6-260.5,260.6S674,694.9,665.3,685,773.2,558.4,925.8,424.4,1209,189.7,1217.7,199.6Z" transform="translate(-622.3 -120.4)"/><g class="t"><g class="au"><path class="h" d="M1182.6,437.8c.2,8.3-107.7,17-240.8,19.4S700.6,455,700.4,446.8s107.7-17,240.8-19.4S1182.4,429.6,1182.6,437.8Z" transform="translate(-622.3 -120.4)"/></g></g><path class="av" d="M1182.6,437.8c.2,8.3-107.7,17-240.8,19.4S700.6,455,700.4,446.8s107.7-17,240.8-19.4S1182.4,429.6,1182.6,437.8Z" transform="translate(-622.3 -120.4)"/><g class="t"><g class="aw"><path class="i" d="M702.1,169.8c6.5-5.7,120.4,113.4,254.4,265.9s237.4,280.8,231,286.5S1067.1,608.8,933.1,456.3,695.6,175.5,702.1,169.8Z" transform="translate(-622.3 -120.4)"/></g></g><path class="ax" d="M702.1,169.8c6.5-5.7,120.4,113.4,254.4,265.9s237.4,280.8,231,286.5S1067.1,608.8,933.1,456.3,695.6,175.5,702.1,169.8Z" transform="translate(-622.3 -120.4)"/><g class="t"><g class="ay"><path class="j" d="M946,683.4c-8.6.2-17.6-107.6-20.1-240.8s2.5-241.2,11.1-241.4S954.6,308.8,957.1,442,954.6,683.2,946,683.4Z" transform="translate(-622.3 -120.4)"/></g></g><path class="az" d="M946,683.4c-8.6.2-17.6-107.6-20.1-240.8s2.5-241.2,11.1-241.4S954.6,308.8,957.1,442,954.6,683.2,946,683.4Z" transform="translate(-622.3 -120.4)"/><ellipse class="ba" cx="314.2" cy="730.5" rx="169.7" ry="39.8"/><g class="bb"><path class="bc" d="M1008.3,507.6c34-7.8,56.6-21.4,56.4-36.5-.3-22.9-52.8-40.7-117.3-39.8s-116.4,20.4-116,43.3,52.8,40.7,117.3,39.8a287.4,287.4,0,0,0,59.6-6.8" transform="translate(-622.3 -120.4)"/><path class="bd" d="M882,375.3c-15.2,15.6-3.8,66.9,27.3,118.9,33,55.3,75.8,90.6,95.5,78.8a15.4,15.4,0,0,0,3.2-2.5c15.2-15.7,3.8-66.9-27.3-118.9-33-55.3-75.8-90.6-95.5-78.8a13.1,13.1,0,0,0-3.2,2.5m-5.9-5.7h0a24.3,24.3,0,0,1,4.8-3.8c9-5.4,25.4-7.1,52.2,15,18.7,15.5,38.1,39.2,54.6,66.7,15.4,25.8,26.8,52.6,32,75.5,5.7,25.1,3.7,43.6-5.8,53.4a24.3,24.3,0,0,1-4.8,3.8c-9,5.4-25.4,7.2-52.2-15-18.7-15.5-38.1-39.2-54.6-66.7-15.4-25.8-26.8-52.6-32-75.5-5.8-25.2-3.7-43.6,5.8-53.4Z" transform="translate(-622.3 -120.4)"/><path class="bd" d="M953.7,395.5c-14.1,14.5-28.6,34.2-41.4,57.2-31.4,56.3-40.5,111-20.5,122.1,11.9,6.6,31.3-3.5,51.7-24.5,14.1-14.5,28.6-34.2,41.4-57.2,31.4-56.3,40.6-111,20.5-122.1-11.9-6.6-31.3,3.5-51.7,24.5m-5.9-5.7,5.9,5.7-5.9-5.7c24.5-25.2,46.3-34.5,61.6-26,9.2,5.1,18.9,18.4,13.1,52.7-4,24-14.8,52.6-30.5,80.6-12.8,22.9-27.5,43.3-42.7,58.9-24.5,25.2-46.3,34.5-61.6,26-9.2-5.1-18.9-18.4-13.1-52.7,4-24,14.8-52.6,30.5-80.6,12.8-23,27.5-43.3,42.7-58.9Z" transform="translate(-622.3 -120.4)"/></g><path class="be" d="M907.8,338.3c-2,1.5-6.8,4.6-12.6,3.8-11-1.5-18.9-16.5-14.8-24.9,2-4,7.2-7.5,11.3-7.5a18.4,18.4,0,0,1,3.5.3c2,.4,3.8.6,5.7,1.9a8.3,8.3,0,0,1,2.5,2.5C904.8,322.3,906.3,330.3,907.8,338.3Z" transform="translate(-622.3 -120.4)"/><path class="bf" d="M946.6,399V365.9l-5.7,1.6c-2.9.7-5.6,1.1-8.1,1.5.4,10,.7,20,1.1,30a16.3,16.3,0,0,0,7,1.3A16.5,16.5,0,0,0,946.6,399Z" transform="translate(-622.3 -120.4)"/><path class="bg" d="M946.6,411.9V378.5c-1.7,4.1-5.5,6.3-8.8,5.7a7.3,7.3,0,0,1-4.4-3.1l.6,30.2a13.6,13.6,0,0,0,3.3,1.2,14,14,0,0,0,4.2.4A19.6,19.6,0,0,0,946.6,411.9Z" transform="translate(-622.3 -120.4)"/><path class="bf" d="M898.1,329.4l-11.9-10c-1.9,2.1-1.3,5.2,1.4,7.5A12.2,12.2,0,0,0,898.1,329.4Z" transform="translate(-622.3 -120.4)"/><path class="bg" d="M972.8,346.1a48.8,48.8,0,0,1-17.9,22.4c-2.6,1.7-22.8,15.2-40.9,5-13.2-7.4-16.4-22.2-17-25.2a60.6,60.6,0,0,1-2.2-21.7h0a53.7,53.7,0,0,1,5.7-18.9,53.9,53.9,0,0,1,3.8-19.5c1-2.7,6.3-16,17.6-23.3,17.6-11.4,50.2-8.4,61.7,13.2,10.4,19.5-3,41.6-3.8,42.8a14.9,14.9,0,0,1,9.4-2.5,14.3,14.3,0,0,1,11.3,7.5c4.2,8.8-4.2,21.1-12.6,23.9a15.4,15.4,0,0,1-6.9.6A13.8,13.8,0,0,1,972.8,346.1Z" transform="translate(-622.3 -120.4)"/><path class="bh" d="M956,321.8h-4.7c-7.9.2-13.7,7.4-11.8,14.9s5.7,13.1,15.4,12.2,12.9-7.3,13.7-13.7S963.5,321.7,956,321.8Z" transform="translate(-622.3 -120.4)"/><path class="bi" d="M908.4,320h-3.8a10.5,10.5,0,0,0-9.8,12.9c1.3,5.8,4.7,11.3,12.8,10.6s10.7-6.3,11.3-11.9A10.4,10.4,0,0,0,908.4,320Z" transform="translate(-622.3 -120.4)"/><path class="bj" d="M935,409.7" transform="translate(-622.3 -120.4)"/><path class="bk" d="M921,319.3a8.5,8.5,0,0,0-2.2-8.8,12.4,12.4,0,0,0-7.8-3.4,12.2,12.2,0,0,0-6.3,1.4,8.3,8.3,0,0,0-4.2,8.9c1.4,6.9,6.8,11.4,11.1,11.1S919.4,324.7,921,319.3Z" transform="translate(-622.3 -120.4)"/><ellipse class="bl" cx="905.4" cy="317.3" rx="4.8" ry="7.7" transform="translate(-662.1 32.2) rotate(-9.4)"/><path class="bm" d="M929.3,319.1c.1,2.9-.2,6.3-2.5,8.8s-4.4,2.5-4.4,3.8,1.2,2.2,6.3,3.8" transform="translate(-622.3 -120.4)"/><path class="bn" d="M959,300.6c.4-1.3-1.7-3.4-6.4-6.4s-8.7-.6-9.5,1.6a3.3,3.3,0,0,0,.1,2.2,5.6,5.6,0,0,0,4.7,3.6C954.9,302.4,958.6,302,959,300.6Z" transform="translate(-622.3 -120.4)"/><path class="bn" d="M906.6,300c-.3-1,1.3-2.7,4.9-5s6.7-.5,7.3,1.3a2.5,2.5,0,0,1,0,1.7,4.3,4.3,0,0,1-3.8,2.9Q907.2,301.7,906.6,300Z" transform="translate(-622.3 -120.4)"/><path class="bo" d="M916.9,346.9a21.5,21.5,0,0,0,15.7,4.6c8.2-1,13-6.9,14.3-8.5l-1.8-2.3,3.6,4" transform="translate(-622.3 -120.4)"/><path class="be" d="M973.1,347.1c2,1.5,6.8,4.6,12.6,3.8,11-1.5,18.9-16.5,14.8-24.9-2-4-7.2-7.5-11.3-7.5a18.4,18.4,0,0,0-3.5.3c-2,.4-3.8.6-5.7,1.9a8.3,8.3,0,0,0-2.5,2.5C976,331.1,974.5,339.1,973.1,347.1Z" transform="translate(-622.3 -120.4)"/><path class="bf" d="M975,337.1l17.1-8.3c1.5,3.3-.2,7-4.1,8.9A13.6,13.6,0,0,1,975,337.1Z" transform="translate(-622.3 -120.4)"/><path class="bl" d="M900.4,307.7a66.2,66.2,0,0,1,3.5-12.3c1.8-4.1,2.8-6.2,5-8.2s1.4-1,1.3-1.3-5-.1-8.2,3.1c-.2.2-.3.4-.5.5a10.1,10.1,0,0,0-2.2,7.3C899.6,300.5,900.1,304.2,900.4,307.7Z" transform="translate(-622.3 -120.4)"/><path class="bp" d="M947.5,317.4" transform="translate(-622.3 -120.4)"/><path class="bf" d="M1019.2,606.7c-.7-.4-3.4-1.9-5.1-1.3s-1.6,10.8,3.8,15.3l1.3.9.8,1.1c-1.5.6-7.2,3.2-9,9-.7,2.3-1,5.9.1,6.1s6-5.2,8-8.3a27,27,0,0,1,2.1-3.2c.3.1-.6,2.7-1.6,4.9a51.6,51.6,0,0,0-2.7,6.7,3.5,3.5,0,0,0,.7,5,3.4,3.4,0,0,0,3.7-.5,24.4,24.4,0,0,0,2.9-7.5,17,17,0,0,0,.4-5.1C1024.3,610.8,1021.9,608.2,1019.2,606.7Z" transform="translate(-622.3 -120.4)"/><path class="bg" d="M1006,583.3c.3,4.4,2.2,32.7,6.3,37.8.6.7,1.9,2.4,3.6,2.3a3.9,3.9,0,0,0,3.2-2.5c.5-1.3-.1-2.8-1.3-5.7a50.5,50.5,0,0,1-2.5-6.9c-.2-.7-.4-1.5,0-1.9s2.2-.1,3.2.6,2.3,3.8,2.5,5c.7,4.1,1.5,8.8,2.3,14.1,1.5,8.6,2.9,15.2,3.7,18,.2.8.8,2.6,2.2,3.2a2.5,2.5,0,0,0,1.9.1c2.7-1,.7-15.8-3.8-34.9-1.9-8.2-3.9-15-5.3-19.4-1.6-9.4-1.7-11.7-2.2-13.2s-2.2,1.2-4.9,2.2A20.7,20.7,0,0,1,1006,583.3Z" transform="translate(-622.3 -120.4)"/><path class="bq" d="M1015.2,617.1a2.9,2.9,0,0,1,2.7,1.9,1.7,1.7,0,0,1,.1.7,2.6,2.6,0,0,1-.6,1.5,2.1,2.1,0,0,1-1.9.6,2.5,2.5,0,0,1-2.2-2.2,2.9,2.9,0,0,1,.6-1.9A6.1,6.1,0,0,1,1015.2,617.1Z" transform="translate(-622.3 -120.4)"/><path class="bq" d="M1031.6,641.1a1.1,1.1,0,0,0-.6,0c-1.4.6-1.5,5.2-.3,5.7a.6.6,0,0,0,.6-.1c.8-.4.9-1.7,1-2.6S1032.5,641.4,1031.6,641.1Z" transform="translate(-622.3 -120.4)"/><text class="br" transform="matrix(-1, 0, 0, 1, 331.62, 329.79)"><tspan class="bs">L</tspan><tspan x="3.5" y="0">o</tspan><tspan class="bt" x="7.6" y="0">r</tspan><tspan x="10" y="0">em ipsum</tspan></text><path class="bg" d="M952.3,785.2l-5.7,46,15.1.6,7.5-44.1Z" transform="translate(-622.3 -120.4)"/><path class="bg" d="M927.1,780.2l-6.9,51L904.5,835l6.3-52.9Z" transform="translate(-622.3 -120.4)"/><path class="bg" d="M1006.4,587.6c-5-21.7-10-43.6-14.8-65.8-4.2-19.4-8.3-38.5-12.3-57.6l12-9.4c10,43.2,13.9,59.5,14.8,62.6.2.7,13.3,53,14.2,65.8.1,1.6.3,4.4.3,7.9-2.2-4.1-6.1-6.5-9.7-5.9A7.9,7.9,0,0,0,1006.4,587.6Z" transform="translate(-622.3 -120.4)"/><path class="bu" d="M990.4,533.7s6.5,160.6-3.9,255.7l-39.8-1,10.6-184.9-14-.3-6.4,186.3-42.2-1L909,538.6Z" transform="translate(-622.3 -120.4)"/><path class="bf" d="M992.9,461.3c-.3-.3-2.1,1.1-6,3.5s-5.3,3-6.9,3.8c.4,1.7.8,3.4,1.3,5a40.8,40.8,0,0,0,6.3-5C990.5,465.6,993.4,461.8,992.9,461.3Z" transform="translate(-622.3 -120.4)"/><line class="bv" x1="289.1" y1="433.1" x2="277.1" y2="664.8"/><path class="bg" d="M893.7,580.3a9.3,9.3,0,0,1,3.8,4c5.1,10.6,7.4,16.6,8.5,20.3a47.9,47.9,0,0,0,2.4,6.9c2.1,4.4,3.9,5.8,3.3,7.2s-4.8,2.2-7.4.5-3.9-6.7-4.5-10.2-2.2-5.7-2.6-5.1-.3,1.2-.5,1.8a143.8,143.8,0,0,0,2.1,18.3,97.2,97.2,0,0,1,1.3,18.9c-.1,2.1-.4,6.1-2.5,6.9l-.8.2c-4.1-.4-4.6-34.1-4.5-34.2s.1,6.6,1.6,18.6a36.8,36.8,0,0,1-.7,13.5c-.5,1.9-1.2,5-2.5,5s-3.3-5.3-3.8-6.9c-1.5-4.8-1.8-6.1-1.7-6.1a6.9,6.9,0,0,1,1,4.2c-.2,1.8-1.2,3.8-1.9,3.8s-1.9-3.3-2.6-16.3l-.5-9.9c.5-13.1,1.4-27,1.8-40.1A9.7,9.7,0,0,1,893.7,580.3Z" transform="translate(-622.3 -120.4)"/><path class="bg" d="M897.6,586.8q3.3-32.5,8-66.7c2.7-20.1,5.7-39.8,8.8-58.9L899,455.7c-1.7,14.4-4.5,35.7-8.3,61.6-1.5,10.4-11,73.9-6.4,74.8,1.3.3,4-6.9,9-6.9A7.1,7.1,0,0,1,897.6,586.8Z" transform="translate(-622.3 -120.4)"/><path class="bf" d="M897.5,465.4c.5-.5,2.5,1.4,7.4,3.5a64.5,64.5,0,0,0,7.7,2.8l-.6,5a16.6,16.6,0,0,1-8.2-2.5C899.3,471.3,896.8,466.2,897.5,465.4Z" transform="translate(-622.3 -120.4)"/><path class="bq" d="M911.1,619c-.6.9-2.2.8-2.8.7-2.6-1.1-3.7-3.2-3.2-4.4s2-1.5,3.2-1.3S912,617.7,911.1,619Z" transform="translate(-622.3 -120.4)"/><path class="bq" d="M896.9,649.2a1.8,1.8,0,0,1-1.3,0c-1.1-2.5-1.4-4.5-.6-5s1.2,0,1.3,0C897.9,645,898.1,648.5,896.9,649.2Z" transform="translate(-622.3 -120.4)"/><path class="bq" d="M891,652.5a1,1,0,0,1-1.1.5c-1.1-.1-1.7-1.9-1.9-2.6s-.6-1.8-.2-2S891.6,651.2,891,652.5Z" transform="translate(-622.3 -120.4)"/><path class="bq" d="M884.4,646.8c-.2.2-.6.1-.9,0s-.5-1.5-.4-2,.2-1.2.4-1.2S885.2,646.2,884.4,646.8Z" transform="translate(-622.3 -120.4)"/><path class="bw" d="M893.8,641.8A69.8,69.8,0,0,1,891,630a28.5,28.5,0,0,1,.7-12" transform="translate(-622.3 -120.4)"/><path class="bw" d="M889,648c-1.5-5.5-4-16.7-2.1-28.4" transform="translate(-622.3 -120.4)"/><path class="bw" d="M885.5,643.1a54.1,54.1,0,0,1-1.4-23.3" transform="translate(-622.3 -120.4)"/><path class="bq" d="M891.5,652.9a1.8,1.8,0,0,1-1.3,0c-1.1-2.5-1.4-4.5-.6-5s1.2,0,1.3,0C892.5,648.6,892.7,652.2,891.5,652.9Z" transform="translate(-622.3 -120.4)"/><path class="bx" d="M949.8,394.3a396.7,396.7,0,0,1,31.1,28.1c9.7,9.8,18.2,19.4,25.6,28.5-4.5,3.4-9.1,6.8-13.8,10.1l-13.2,9.4c-2-7.8-3.8-14.5-3.8-14.5h0l.6,1.9c3.2,11.4,6.2,23.6,8.8,36.5,3.5,17,5.9,25.4,7.5,40.3l-83.7,3.8c.3-8,.7-8.6,1.3-17,1.5-21.8,3.9-42.4,6.9-61.7,0,0-.3,2.4-.6,4.4-.5,3.6-.9,6.7-1.3,9.4l-30.5-13.8a289.8,289.8,0,0,1,18.6-32.2,299.4,299.4,0,0,1,26.4-34,11.2,11.2,0,0,0,9.7,6.7A10.7,10.7,0,0,0,949.8,394.3Z" transform="translate(-622.3 -120.4)"/><path class="by" d="M977.9,464.1l1.5,6.4c5.1-3.2,10.3-6.7,15.7-10.7s7.8-5.9,11.3-8.8l-3.8-4.4Z" transform="translate(-622.3 -120.4)"/><path class="by" d="M886.8,454.7c-.8,1.7-1.7,3.4-2.5,5,5.7,2.8,11.5,5.5,17.6,8.2l13.2,5.7,1.9-5.7Z" transform="translate(-622.3 -120.4)"/><path class="by" d="M946.6,390.5a6.6,6.6,0,0,1-13.2-.6l-3.8,3.8A11,11,0,0,0,934,400a11.5,11.5,0,0,0,9.4,1.3,11.3,11.3,0,0,0,6.9-6.3C949.2,393.5,947.9,392,946.6,390.5Z" transform="translate(-622.3 -120.4)"/><path class="bz" d="M938.5,408.1" transform="translate(-622.3 -120.4)"/><path class="ca" d="M986.9,471.7" transform="translate(-622.3 -120.4)"/><path class="ca" d="M1009.6,531.5" transform="translate(-622.3 -120.4)"/><path class="by" d="M992,529a403.7,403.7,0,0,1-41.5,3.8c-14.8.5-28.6.2-40.9-.6a17.8,17.8,0,0,0-.6,3.8,20.8,20.8,0,0,0,0,2.5c14.2-.2,28.9-.5,44.1-1.3,13.6-.6,26.8-1.5,39.7-2.5A55.8,55.8,0,0,1,992,529Z" transform="translate(-622.3 -120.4)"/><polygon class="bl" points="346.4 694.4 335.7 710.2 324.3 710.2 321.2 729.7 381 729.7 342.6 712.1 346.4 694.4"/><polygon class="bl" points="275.9 695.1 286.6 710.8 297.9 710.8 301 730.3 241.2 730.3 279.6 712.7 275.9 695.1"/><polygon class="bu" points="361.7 720.8 352.7 728.4 321.4 728.4 319.9 730.3 381.6 730.3 382.9 730.3 361.7 720.8"/><polygon class="bu" points="260.5 721.4 269.6 729 300.8 729 302.3 730.9 240.6 730.9 239.4 730.9 260.5 721.4"/><line class="cb" x1="345.1" y1="712.7" x2="341.3" y2="717.1"/><line class="cb" x1="347.6" y1="713.9" x2="343.9" y2="718.3"/><line class="cb" x1="350.2" y1="715.2" x2="346.4" y2="719.6"/><line class="cb" x1="277.1" y1="713.3" x2="280.9" y2="717.7"/><line class="cb" x1="274.6" y1="714.6" x2="278.4" y2="719"/><line class="cb" x1="272.1" y1="715.8" x2="275.9" y2="720.2"/><path class="bm" d="M919.5,306.5a15.4,15.4,0,0,0-12.5-2.1" transform="translate(-622.3 -120.4)"/><path class="cc" d="M921,319.3a8.5,8.5,0,0,0-2.2-8.8,12.4,12.4,0,0,0-7.8-3.4,12.2,12.2,0,0,0-6.3,1.4,8.3,8.3,0,0,0-4.2,8.9c1.4,6.9,6.8,11.4,11.1,11.1S919.4,324.7,921,319.3Z" transform="translate(-622.3 -120.4)"/><path class="bl" d="M976.5,328.5s-17.4-14-14.4-40.2,25.2-14.1,25.2-14.1S996.7,300.2,976.5,328.5Z" transform="translate(-622.3 -120.4)"/><path class="bl" d="M977.9,275.4S901,307,891.6,282.8,977.9,275.4,977.9,275.4Z" transform="translate(-622.3 -120.4)"/><path class="bl" d="M963.1,277.9s-77.5,2.3-90.3-18.3,60.8-17.4,96.6.2S963.1,277.9,963.1,277.9Z" transform="translate(-622.3 -120.4)"/><path class="bl" d="M985.4,275.3s-4-37.3-23.8-33.4S985.4,275.3,985.4,275.3Z" transform="translate(-622.3 -120.4)"/><path class="bl" d="M980.4,273.8s7.1-20.2,9.9-12.5-3.4,11-3.4,11,9.1-3,7.9,3.3S980.4,273.8,980.4,273.8Z" transform="translate(-622.3 -120.4)"/><circle class="bu" cx="322.2" cy="117.6" r="3.5"/><circle class="bu" cx="235.6" cy="189.2" r="2.2"/><circle class="bu" cx="393.3" cy="228.8" r="4.5"/><path class="bu" d="M1025,332.5a2.2,2.2,0,1,1-2.2,2.2A2.2,2.2,0,0,1,1025,332.5Z" transform="translate(-622.3 -120.4)"/><path class="bk" d="M958.8,321a9.3,9.3,0,0,0-2.3-9.4,13.1,13.1,0,0,0-8.3-3.6,11.7,11.7,0,0,0-6.7,1.5,8.8,8.8,0,0,0-4.5,9.4c1.4,7.4,7.2,12.1,11.8,11.9S957,326.8,958.8,321Z" transform="translate(-622.3 -120.4)"/><ellipse class="bl" cx="942.1" cy="318.9" rx="5.1" ry="8.2" transform="translate(-661.8 38.2) rotate(-9.4)"/><path class="cc" d="M958.8,321a9.3,9.3,0,0,0-2.3-9.4,13.1,13.1,0,0,0-8.3-3.6,11.7,11.7,0,0,0-6.7,1.5,8.8,8.8,0,0,0-4.5,9.4c1.4,7.4,7.2,12.1,11.8,11.9S957,326.8,958.8,321Z" transform="translate(-622.3 -120.4)"/><path class="bm" d="M956.1,307.4a15.4,15.4,0,0,0-12.5-2.1" transform="translate(-622.3 -120.4)"/><polygon class="bl" points="368.1 414.4 286.6 418.1 285.8 431.2 368.6 427.4 368.1 414.4"/><polygon class="bu" points="359.7 414.8 360.3 432.3 356.5 432.3 355.9 415 359.7 414.8"/><polygon class="bu" points="300.9 417.4 300.9 433.1 296.5 433.1 296.5 417.6 300.9 417.4"/><path class="bv" d="M987.5,550.1s1,187.7-7.6,235.7" transform="translate(-622.3 -120.4)"/><polygon class="cd" points="334.5 415.1 334.5 430.3 320.2 431.2 318.5 415.6 334.5 415.1"/><line class="cd" x1="334" y1="422.6" x2="325.7" y2="423.1"/><polyline class="bv" points="321.8 436.5 323.2 475.2 332.6 475.2"/><circle class="bl" cx="321.6" cy="323.4" r="23.4"/><circle class="ce" cx="321.6" cy="323.4" r="19.9"/><rect class="bn" x="239.4" y="730.9" width="63" height="4.4"/><rect class="bn" x="319.9" y="730.3" width="63" height="4.4"/><path class="cf" d="M934.2,444.2l14.7,8.5v5.6l-12.8-7.4a3.7,3.7,0,0,1-1.9-3.3v-3.4Z" transform="translate(-622.3 -120.4)"/><polygon class="cf" points="317.4 317 326.5 311.7 321.6 308.9 317.4 311.3 317.4 317"/><polygon class="cf" points="325.8 327 322.3 329 325.8 331.1 325.8 327"/><polygon class="cf" points="316.7 325.8 316.7 311.7 311.9 314.6 311.9 323 316.7 325.8"/><path class="cf" d="M948.8,438.6v14.1l3-1.7a3.7,3.7,0,0,0,1.9-3.3v-6.2Z" transform="translate(-622.3 -120.4)"/><polygon class="cf" points="322.3 315 331.4 320.2 331.4 314.6 327.2 312.1 322.3 315"/></svg>